<?xml version="1.0" encoding="UTF-8"?>
<svg version="1.1" xmlns="http://www.w3.org/2000/svg" width="1000" height="1000">
<path d="M0 0 C2.5 0.4375 2.5 0.4375 4.08276367 2.13818359 C5.67267813 4.71765205 6.16746198 6.6846956 6.67578125 9.6640625 C6.86043945 10.68677246 7.04509766 11.70948242 7.23535156 12.76318359 C7.42581055 13.85195801 7.61626953 14.94073242 7.8125 16.0625 C12.51561708 40.94477267 21.47820585 71.26516081 43.5 86.4375 C50.9722095 91.22562816 58.20947883 93.2989735 66.88842773 94.50097656 C72.3221001 95.2596001 72.3221001 95.2596001 74.5 97.4375 C74.5 98.7575 74.5 100.0775 74.5 101.4375 C75.2118042 101.48068359 75.9236084 101.52386719 76.65698242 101.56835938 C84.52225039 102.12447011 92.09900178 103.32348204 99.8125 104.9375 C101.68180176 105.32844849 101.68180176 105.32844849 103.58886719 105.72729492 C150.66163854 115.80608525 196.56271255 134.11263748 237.5 159.4375 C238.24910645 159.90027344 238.99821289 160.36304688 239.77001953 160.83984375 C244.36119252 163.68296158 248.93624382 166.55060174 253.5 169.4375 C254.58198316 164.08131026 255.63718745 158.72159019 256.6484375 153.3515625 C257.05673726 151.25510028 257.46559699 149.15874705 257.875 147.0625 C258.16890625 145.46341797 258.16890625 145.46341797 258.46875 143.83203125 C258.67242188 142.80722656 258.87609375 141.78242188 259.0859375 140.7265625 C259.34963135 139.34525146 259.34963135 139.34525146 259.61865234 137.93603516 C260.68712305 134.90702429 262.00825952 133.43687115 264.5 131.4375 C267.125 131.5 267.125 131.5 269.5 132.4375 C271.51078177 135.45367265 271.94356074 136.97580362 272.54296875 140.4609375 C272.72577393 141.47164307 272.9085791 142.48234863 273.09692383 143.52368164 C273.38925903 145.15164673 273.38925903 145.15164673 273.6875 146.8125 C277.50594877 166.80354132 283.1689074 190.90490181 298.5 205.4375 C299.05171875 205.97149414 299.6034375 206.50548828 300.171875 207.05566406 C314.73174472 221.29098181 314.73174472 221.29098181 334.16796875 225.99609375 C336.99011088 226.53026806 338.41762907 227.48233273 340.5 229.4375 C340.9997811 232.293392 340.95099784 233.73594781 339.375 236.1875 C336.85837994 237.86524671 334.46223302 238.00400249 331.5 238.4375 C332.20125 239.18773437 332.9025 239.93796875 333.625 240.7109375 C339.54308237 247.07780428 345.214862 253.52819169 350.5 260.4375 C351.31259277 261.49783447 351.31259277 261.49783447 352.14160156 262.57958984 C368.42109237 283.8798177 383.13477959 305.8590959 394.8125 330.0625 C395.28679443 331.04025391 395.76108887 332.01800781 396.24975586 333.02539062 C396.67909424 333.93740234 397.10843262 334.84941406 397.55078125 335.7890625 C398.11792847 336.99296631 398.11792847 336.99296631 398.6965332 338.22119141 C399.5 340.4375 399.5 340.4375 399.5 344.4375 C400.42619141 344.44136719 400.42619141 344.44136719 401.37109375 344.4453125 C408.46197991 344.76909726 413.2334814 346.62893954 418.5 351.4375 C425.0120418 359.28371622 425.82154061 367.55905781 425.5 377.4375 C426.263125 377.56769531 427.02625 377.69789063 427.8125 377.83203125 C433.96921678 379.21908227 437.94600138 383.44269112 441.5 388.4375 C445.50248675 396.29838398 444.98662 403.17371393 442.52734375 411.4921875 C437.26974247 426.56531056 427.26540551 438.92054731 416.5 450.4375 C415.39013502 451.70335983 414.28573213 452.97403465 413.1875 454.25 C411.08773646 456.68670234 408.93055429 459.03584998 406.6796875 461.33203125 C393.73326501 474.65415867 387.13710561 488.92829289 382.9375 507 C381.84672571 511.6640004 380.33492503 514.62501461 377.5 518.4375 C377.24156545 521.65437639 377.24156545 521.65437639 379.5 524.75 C382.84758742 531.21801713 382.6458992 539.03019539 380.83984375 545.9765625 C379.02596109 550.16969383 376.67525972 552.67288924 372.46191406 554.70507812 C365.37957585 557.34905705 358.42742526 557.70537458 350.9375 557.5625 C350.02419922 557.55347656 349.11089844 557.54445313 348.16992188 557.53515625 C345.94632681 557.51187253 343.72331323 557.4791771 341.5 557.4375 C341.22559082 558.01894775 340.95118164 558.60039551 340.66845703 559.19946289 C339.52708488 561.38562221 338.2694546 563.26495021 336.8046875 565.24609375 C336.26199219 565.98214844 335.71929688 566.71820312 335.16015625 567.4765625 C334.27650391 568.66378906 334.27650391 568.66378906 333.375 569.875 C332.44880859 571.12603516 332.44880859 571.12603516 331.50390625 572.40234375 C326.22136103 579.51631246 320.84941831 586.56092138 315.46435547 593.59741211 C311.08134751 599.33354575 306.76562959 605.11364956 302.5 610.9375 C296.9133758 618.56490017 291.20723662 626.09394565 285.4609375 633.6015625 C281.07935674 639.33652727 276.76457042 645.11509563 272.5 650.9375 C266.91770707 658.5589867 261.21645212 666.08255411 255.47412109 673.58398438 C250.96140235 679.49003102 246.5206829 685.44393511 242.125 691.4375 C240.43571209 693.73432639 238.74557801 696.03052507 237.0546875 698.32617188 C236.05342805 699.68592246 235.05333532 701.04653332 234.0546875 702.40820312 C225.81140588 713.60729001 218.57795973 722.46184723 204.18359375 724.81640625 C184.42467554 725.91216021 161.31505012 706.44995128 147.4375 694.125 C146.66277344 693.38636719 145.88804687 692.64773438 145.08984375 691.88671875 C142.02881687 690.17383644 140.36321772 690.46763171 136.98657227 691.08081055 C131.5482756 691.86091378 125.98264484 691.53763167 120.5 691.5 C119.24832031 691.49548828 117.99664063 691.49097656 116.70703125 691.48632812 C113.63797059 691.47461415 110.56901093 691.45821073 107.5 691.4375 C102.66361231 699.11614113 101.94676941 704.79115098 102.8515625 713.70703125 C102.94504974 714.8638591 103.03853699 716.02068695 103.13485718 717.21257019 C103.43793982 720.89459549 103.7801195 724.57167774 104.125 728.25 C104.33476147 730.67619779 104.54181521 733.10263129 104.74609375 735.52929688 C105.04855385 739.11918814 105.35172932 742.70895906 105.662323 746.29815674 C107.25106669 764.82017596 107.71953163 783.34613193 108.05761719 801.92822266 C108.12607097 805.62026269 108.20351651 809.3120512 108.28125 813.00390625 C108.32606051 815.35936479 108.37035155 817.71483329 108.4140625 820.0703125 C108.44990952 821.72004562 108.44990952 821.72004562 108.48648071 823.40310669 C108.5033493 824.41621918 108.5202179 825.42933167 108.53759766 826.47314453 C108.55456696 827.36244659 108.57153625 828.25174866 108.58901978 829.16799927 C108.5 831.4375 108.5 831.4375 107.5 834.4375 C108.28375 834.623125 109.0675 834.80875 109.875 835 C117.86348255 838.16784653 124.17611621 843.00582474 128.5 850.4375 C129.19633215 852.42736582 129.86813009 854.42623551 130.5 856.4375 C131.17804687 855.96699219 131.85609375 855.49648438 132.5546875 855.01171875 C144.07694131 847.30361821 156.38159324 843.7580531 170.2890625 846.06640625 C188.79850447 850.57125007 204.29662942 858.75760244 214.5 875.4375 C219.64292949 885.04286957 221.88036974 893.85489878 221.8125 904.6875 C221.80758545 905.61409424 221.8026709 906.54068848 221.79760742 907.49536133 C221.62005714 917.89980803 219.64049749 926.29380674 214.29296875 935.28125 C213.24620723 937.41286401 213.24620723 937.41286401 214.23046875 939.453125 C214.64941406 940.10796875 215.06835938 940.7628125 215.5 941.4375 C218.90807945 948.05464695 220.75206572 953.40436163 218.91015625 960.80859375 C215.416471 971.12865018 207.20538658 979.62787795 197.5 984.4375 C183.59261756 989.98500033 170.30843613 991.85549215 155.375 991.8125 C154.25717133 991.81118576 154.25717133 991.81118576 153.11676025 991.80984497 C111.00331371 991.64752021 64.10721408 977.86146774 33 948.3125 C27.29877215 942.33463029 22.57773213 935.52975562 22.46875 926.98828125 C22.80086561 921.4336477 23.78650875 917.76990646 27.5 913.4375 C29.77227054 911.43573785 31.79666103 909.78916948 34.5 908.4375 C34.56058594 907.19613281 34.62117188 905.95476563 34.68359375 904.67578125 C34.76803623 903.03384423 34.85268236 901.39191768 34.9375 899.75 C34.99647461 898.52506836 34.99647461 898.52506836 35.05664062 897.27539062 C35.39729167 890.80302083 35.39729167 890.80302083 36.296875 887.6015625 C36.39742187 886.53035156 36.39742187 886.53035156 36.5 885.4375 C34.78350556 883.28829615 34.78350556 883.28829615 32.3125 881.5 C26.21099234 876.45014972 22.05652084 871.23703299 21.27734375 863.1171875 C21.00938468 855.49782957 22.48539332 848.77292359 27.71875 842.94921875 C33.51342424 838.03137022 40.32177315 834.74979825 47.5 832.4375 C47.72682287 808.87758335 47.55134603 785.42058041 46.21142578 761.89282227 C46.11997736 760.28402487 46.0286642 758.67521978 45.9375 757.06640625 C45.8729512 755.93447594 45.8729512 755.93447594 45.80709839 754.77967834 C45.4747374 748.66297243 45.39081753 742.56309142 45.5 736.4375 C44.3140625 736.48390625 43.128125 736.5303125 41.90625 736.578125 C26.15314423 737.01047971 13.54973248 734.72863752 -0.27416992 726.9921875 C-3.69339019 725.03458104 -3.69339019 725.03458104 -7.51171875 724.49609375 C-8.49591797 724.96208984 -8.49591797 724.96208984 -9.5 725.4375 C-10.58410156 725.94023438 -11.66820312 726.44296875 -12.78515625 726.9609375 C-13.69515381 727.40723511 -13.69515381 727.40723511 -14.62353516 727.86254883 C-28.37535752 734.5999375 -41.33814756 736.26145881 -56.5 737.4375 C-58.20897813 759.24483026 -58.95661818 781.0788188 -59.625 802.9375 C-59.6472036 803.6634499 -59.6694072 804.3893998 -59.69228363 805.13734818 C-59.96983342 814.23715646 -60.23879215 823.33720722 -60.5 832.4375 C-58.86333374 832.64681152 -58.86333374 832.64681152 -57.19360352 832.86035156 C-49.29077392 834.09521766 -40.9673271 838.57012458 -35.5 844.4375 C-30.66903571 851.40697115 -29.25891303 858.05146373 -30.5 866.4375 C-32.40525207 872.68544953 -36.94291107 879.27828756 -42.57373047 882.69628906 C-44.73332346 884.293786 -44.73332346 884.293786 -44.95751953 886.91772461 C-44.87684947 890.07308411 -44.77996112 893.2222791 -44.625 896.375 C-44.60953125 897.47263672 -44.5940625 898.57027344 -44.578125 899.70117188 C-44.45198347 902.74155379 -44.25361213 905.48842163 -43.5 908.4375 C-40.74413133 911.14175104 -40.74413133 911.14175104 -37.5 912.4375 C-33.06653644 917.24041885 -30.9457843 921.55926676 -31.20703125 928.21484375 C-32.89802372 941.04383995 -43.09856012 950.10423634 -52.8125 957.6875 C-89.0306373 984.8310264 -141.60765813 996.98046431 -186.2421875 990.7890625 C-200.95764728 988.12182833 -214.92882391 981.25198752 -224.1875 969.25 C-227.67616928 963.69984432 -228.99587339 957.97568251 -228.5 951.4375 C-227.30678945 947.14676308 -225.61997995 943.19648692 -223.2265625 939.4375 C-222.24670475 937.40591848 -222.24670475 937.40591848 -223.29296875 935.24609375 C-223.75316406 934.46363281 -224.21335937 933.68117188 -224.6875 932.875 C-231.57039701 919.86143517 -232.87772693 903.88057592 -229.4375 889.5 C-228.84831264 887.79189719 -228.19779829 886.10418368 -227.5 884.4375 C-227.05914062 883.3340625 -226.61828125 882.230625 -226.1640625 881.09375 C-219.1335604 865.31798919 -207.02637728 855.81490602 -191.37890625 849.09765625 C-178.9192267 844.34708643 -164.80461944 843.31654545 -152.421875 848.80078125 C-147.82805866 851.03666046 -143.50886895 853.2475449 -139.5 856.4375 C-139.26925781 855.85742188 -139.03851563 855.27734375 -138.80078125 854.6796875 C-135.80224935 847.49743322 -132.78134726 842.62589294 -125.75 838.9375 C-122.81970048 837.03352627 -121.65714934 836.13762444 -120.87939453 832.67260742 C-120.83927246 831.57795166 -120.79915039 830.4832959 -120.7578125 829.35546875 C-120.70431641 828.09976074 -120.65082031 826.84405273 -120.59570312 825.55029297 C-120.56131309 824.17942216 -120.52946538 822.8084855 -120.5 821.4375 C-120.48171143 820.75600891 -120.46342285 820.07451782 -120.44458008 819.37237549 C-120.34553326 815.65476764 -120.27022653 811.93716772 -120.20922852 808.21875 C-119.91094221 790.09813932 -119.14352486 772.02793824 -118.0625 753.9375 C-118.00096741 752.89582672 -117.93943481 751.85415344 -117.8760376 750.78091431 C-117.69353865 747.71826504 -117.5056962 744.6559864 -117.31640625 741.59375 C-117.22794434 740.10949776 -117.22794434 740.10949776 -117.13769531 738.59526062 C-116.80371452 733.25582406 -116.36010437 727.94764734 -115.78076172 722.62890625 C-115.66627182 721.50464233 -115.55178192 720.38037842 -115.43382263 719.2220459 C-115.21088072 717.07298988 -114.96508827 714.92613305 -114.692276 712.78283691 C-114.0644644 706.55364964 -114.54347709 703.02017189 -118.38551331 697.97961426 C-119.5 696.4375 -119.5 696.4375 -119.5 694.4375 C-120.27601563 694.47230469 -121.05203125 694.50710938 -121.8515625 694.54296875 C-142.53485005 695.06128503 -160.84261457 687.80674444 -176.1484375 674.05859375 C-181.67771569 668.75347548 -186.63781433 663.08762103 -190.5 656.4375 C-190.5 655.7775 -190.5 655.1175 -190.5 654.4375 C-191.42296875 655.02015625 -192.3459375 655.6028125 -193.296875 656.203125 C-282.45508089 712.32212607 -282.45508089 712.32212607 -311.30078125 705.8046875 C-319.07641979 703.18527664 -324.25305911 698.08713002 -328.49609375 691.1953125 C-331.6483725 684.56371744 -332.73121251 677.2099618 -334.1875 670.0625 C-334.55177283 668.3181583 -334.91705187 666.5740265 -335.28320312 664.83007812 C-336.41599873 659.41565204 -337.53222883 653.99789217 -338.64691162 648.57971191 C-339.61524017 643.87510237 -340.58800359 639.1714122 -341.56103516 634.46777344 C-341.74402192 633.58317381 -341.92700869 632.69857418 -342.1155405 631.7871685 C-343.07297913 627.15934122 -344.03087853 622.53160955 -344.98918152 617.90396118 C-345.37796979 616.02630814 -345.76674845 614.1486531 -346.15551758 612.27099609 C-346.34882125 611.33748384 -346.54212492 610.4039716 -346.74128628 609.4421711 C-347.91514844 603.77085588 -349.08488105 598.09870693 -350.25131512 592.42585945 C-350.9900389 588.83500577 -351.7309191 585.24459903 -352.47218895 581.65427017 C-352.82247066 579.95498144 -353.17175493 578.25548677 -353.52001381 576.55578232 C-354.00038788 574.21178689 -354.48416614 571.86851877 -354.96875 569.52539062 C-355.10999644 568.83172205 -355.25124289 568.13805347 -355.39676952 567.42336464 C-356.13745561 563.82876442 -356.13745561 563.82876442 -357.5 560.4375 C-358.08378418 560.45321045 -358.66756836 560.4689209 -359.26904297 560.48510742 C-361.97092595 560.54832028 -364.67265259 560.58675923 -367.375 560.625 C-368.75171875 560.66270508 -368.75171875 560.66270508 -370.15625 560.70117188 C-377.79835861 560.78189837 -385.59587477 559.88959858 -391.9375 555.25 C-396.57940019 550.15523149 -398.08115269 544.65938596 -397.8671875 537.8125 C-397.18456839 533.39726149 -395.31904338 529.48468889 -393.5 525.4375 C-393.17 524.4475 -392.84 523.4575 -392.5 522.4375 C-393.32777075 520.74796771 -393.32777075 520.74796771 -394.625 518.9375 C-397.40920542 514.24630457 -398.57627128 509.62596387 -399.8125 504.375 C-403.74289142 488.14202142 -411.32540269 475.35778921 -423.25219727 463.72021484 C-427.31558459 459.72368902 -430.9071162 455.44050975 -434.453125 450.9765625 C-436.23072003 448.77153049 -438.07517036 446.69993103 -440 444.625 C-450.36698853 432.88378276 -460.13562061 417.12228708 -459.7421875 401.14453125 C-459.11286533 394.11033347 -456.49279629 389.68571834 -451.33984375 384.9140625 C-447.88555876 382.14183379 -444.95322952 380.4375 -440.5 380.4375 C-440.54640625 379.60347656 -440.5928125 378.76945312 -440.640625 377.91015625 C-440.93356564 368.77668549 -439.69597977 362.45747969 -434.1875 355.125 C-429.67690487 350.61440487 -426.02369083 348.55833298 -419.8125 347.875 C-417.48218188 347.50646016 -417.48218188 347.50646016 -415.5 346.4375 C-414.08003314 343.99496315 -413.41509469 341.58351704 -412.625 338.87109375 C-397.81222587 293.66127269 -353.16663639 244.83322579 -317.75390625 214.41015625 C-315.54075972 212.47317359 -313.37860172 210.48737059 -311.22338867 208.48632812 C-249.07241747 150.86997714 -163.04014325 109.92069342 -78.68481445 99.98828125 C-75.4170409 99.79946141 -75.4170409 99.79946141 -74.02734375 97.4609375 C-72.05144968 94.84325687 -70.30732436 94.76640683 -67.15673828 94.32568359 C-66.12009033 94.19540771 -66.12009033 94.19540771 -65.0625 94.0625 C-49.92926822 91.64896631 -39.47241417 83.87391617 -29.9375 72.0625 C-17.09754028 54.1636869 -11.13048372 32.65412888 -7.23535156 11.26879883 C-7.05069336 10.29322021 -6.86603516 9.3176416 -6.67578125 8.3125 C-6.52020752 7.44367187 -6.36463379 6.57484375 -6.2043457 5.6796875 C-5.09218568 2.1392793 -3.65919555 0.64035922 0 0 Z M-43.5 268.4375 C-44.44681641 268.56640625 -45.39363281 268.6953125 -46.36914062 268.828125 C-84.12460837 274.15482718 -126.65287287 285.40936541 -158.5 307.4375 C-158.5 308.0975 -158.5 308.7575 -158.5 309.4375 C-147.92050354 318.57638418 -135.40140387 322.4375 -121.5 322.4375 C-119.90072256 320.94126311 -119.90072256 320.94126311 -118.375 318.9375 C-104.44086113 302.48304912 -84.78228771 293.15036078 -63.5 290.4375 C-40.69225705 288.59039406 -20.26336728 295.73740424 -1.5 308.4375 C-0.66339844 307.85742188 0.17320312 307.27734375 1.03515625 306.6796875 C21.67186198 292.69591975 44.68538208 287.15018529 69.4375 291.625 C87.04745408 295.72255425 100.84140025 303.79732616 113.5 316.4375 C114.16902344 317.09492188 114.83804687 317.75234375 115.52734375 318.4296875 C128.18276788 331.8025393 133.45102273 349.73855878 136.5 367.4375 C137.05236328 367.49695801 137.60472656 367.55641602 138.17382812 367.61767578 C163.8749962 370.50825869 184.66913095 378.88002099 201.6875 399.25 C211.08245466 411.56193655 220.56101713 429.13819904 219.2734375 445.27734375 C219.10372525 448.53313928 219.13605054 450.45499718 220.5 453.4375 C224.90697099 456.41806009 229.58563754 458.38205672 234.45556641 460.48144531 C249.16035872 467.35796391 258.5400194 480.88538113 266.5 494.4375 C268.48 493.4475 270.46 492.4575 272.5 491.4375 C269.24344374 467.30641814 265.28208861 440.74178826 250.81640625 420.53515625 C249.38411929 418.25284735 248.58960837 416.12037666 247.75 413.5625 C239.60541973 389.36730338 222.60035027 367.35978492 205.58984375 348.75 C203.81643159 346.78764486 202.11849755 344.79088591 200.4375 342.75 C197.76490361 339.60878396 194.8087368 336.95865924 191.6640625 334.296875 C190.21233924 333.04954599 188.79007162 331.7671587 187.3984375 330.453125 C170.11042631 314.17506635 149.00334883 301.34296606 127.5 291.4375 C126.79891113 291.11185059 126.09782227 290.78620117 125.37548828 290.45068359 C86.47197404 272.612296 44.04370001 266.20032353 1.5625 266.25 C0.13144424 266.25090637 0.13144424 266.25090637 -1.32852173 266.25183105 C-15.46805152 266.27614132 -29.47204189 266.49532973 -43.5 268.4375 Z M-161.7578125 347.3203125 C-169.42802365 356.6415108 -174.75386252 366.40387493 -179.5 377.4375 C-178.345 377.025 -177.19 376.6125 -176 376.1875 C-165.0851098 372.58918455 -154.59606322 370.06699517 -143.09765625 369.61328125 C-140.57167239 369.72842346 -140.57167239 369.72842346 -139.5 368.4375 C-139.20432616 366.66558412 -138.91381849 364.89264617 -138.64990234 363.11572266 C-137.17106967 353.29464722 -134.24202774 344.60210687 -130.5 335.4375 C-130.17 334.4475 -129.84 333.4575 -129.5 332.4375 C-141.77192601 331.46866374 -153.62592403 338.56588711 -161.7578125 347.3203125 Z M-225.390625 363.17578125 C-241.34580764 380.58383648 -254.76736716 400.63164491 -265.47192383 421.65673828 C-267.19206081 425.03272387 -268.99450211 428.25252236 -271.0625 431.4296875 C-273.49134754 435.25734289 -275.11809471 439.08964248 -276.5625 443.375 C-276.81362549 444.10662354 -277.06475098 444.83824707 -277.32348633 445.59204102 C-281.21355783 457.23983437 -283.62620273 469.16000406 -285.46166992 481.28686523 C-286.1571053 485.80538009 -287.1573679 490.06533905 -288.5 494.4375 C-287.5925 494.994375 -286.685 495.55125 -285.75 496.125 C-282.64929372 498.33127177 -280.81084508 500.46641347 -278.5 503.4375 C-277.84 503.4375 -277.18 503.4375 -276.5 503.4375 C-276.09910156 502.56609375 -275.69820312 501.6946875 -275.28515625 500.796875 C-266.39578869 482.17153345 -254.33578521 468.93148075 -236.1640625 459.3125 C-235.54813232 458.98411133 -234.93220215 458.65572266 -234.29760742 458.31738281 C-232.5 457.4375 -232.5 457.4375 -229.08984375 456.234375 C-226.40657374 454.76055148 -226.40657374 454.76055148 -225.92773438 452.66601562 C-225.62879477 450.33174254 -225.51258468 448.03953898 -225.4375 445.6875 C-224.36915332 430.47723806 -219.26847255 413.79949767 -208.70703125 402.328125 C-206.26951899 399.70584265 -206.26951899 399.70584265 -206.38671875 396.89453125 C-210.1029241 384.62198968 -214.91842424 372.46568847 -221.5 361.4375 C-223.68266634 361.21189138 -223.68266634 361.21189138 -225.390625 363.17578125 Z M-284.5 530.4375 C-285.180625 531.13875 -285.86125 531.84 -286.5625 532.5625 C-290.30927029 536.39691404 -294.69045242 540.03272621 -299.5 542.4375 C-297.89591664 552.8846907 -295.7454762 563.20429291 -293.5859375 573.546875 C-293.20744613 575.36814168 -292.82916395 577.18945185 -292.45108032 579.01080322 C-291.46350508 583.76548973 -290.47312041 588.51958664 -289.4821167 593.27355957 C-288.46812594 598.14034825 -287.4568386 603.00769857 -286.4453125 607.875 C-284.46616268 617.39637983 -282.48403954 626.91713797 -280.5 636.4375 C-276.66224815 635.73597063 -273.76448746 634.71293829 -270.32421875 632.84765625 C-269.33808594 632.31487061 -268.35195313 631.78208496 -267.3359375 631.2331543 C-266.29695313 630.66121338 -265.25796875 630.08927246 -264.1875 629.5 C-262.59228516 628.62952026 -262.59228516 628.62952026 -260.96484375 627.74145508 C-252.26920861 622.95452369 -243.81528805 617.8546656 -235.5 612.4375 C-237.90084693 609.79102187 -240.50168314 608.13577796 -243.5625 606.3125 C-259.19026193 596.47051028 -269.17223253 583.09589961 -276.5 566.4375 C-276.9228125 565.49777344 -277.345625 564.55804687 -277.78125 563.58984375 C-281.83823158 553.15541006 -282.33646335 541.48841723 -283.5 530.4375 C-283.83 530.4375 -284.16 530.4375 -284.5 530.4375 Z M275.5 534.4375 C275.17 538.7275 274.84 543.0175 274.5 547.4375 C277.46404505 544.62945732 279.94499019 542.25434226 281.5 538.4375 C279.52 537.1175 277.54 535.7975 275.5 534.4375 Z M220.8125 611.75 C213.49966221 614.62932763 206.24073947 616.12061071 198.5 617.4375 C198.35304688 618.55125 198.20609375 619.665 198.0546875 620.8125 C196.49919841 631.67817208 193.7553638 641.32928955 189.5 651.4375 C190.72809091 653.08305699 190.72809091 653.08305699 192.5 654.4375 C195.0328186 654.18742424 196.19804602 653.74739491 197.98535156 651.91308594 C198.4490918 651.25598633 198.91283203 650.59888672 199.390625 649.921875 C199.9278418 649.17494385 200.46505859 648.4280127 201.01855469 647.65844727 C201.87562012 646.43532837 201.87562012 646.43532837 202.75 645.1875 C203.9876609 643.46085996 205.22732501 641.73565446 206.46875 640.01171875 C207.11972656 639.10470215 207.77070312 638.19768555 208.44140625 637.26318359 C212.62598594 631.51931199 216.99494735 625.91317058 221.34472656 620.29394531 C221.98893555 619.45573242 222.63314453 618.61751953 223.296875 617.75390625 C223.86760742 617.01599854 224.43833984 616.27809082 225.02636719 615.51782227 C226.41782413 613.55350739 227.4916246 611.6189275 228.5 609.4375 C225.61182064 609.4375 223.47612534 610.63933704 220.8125 611.75 Z " fill="#252021" transform="translate(507.5,2.5625)"/>
<path d="M0 0 C1.68359375 1.55859375 1.68359375 1.55859375 2.9375 2.9375 C4.79403779 5.19332939 4.79403779 5.19332939 7.2890625 5.3828125 C10.95160284 4.86562381 12.60380458 3.29170743 15.4375 0.9375 C32.27279817 -12.364042 50.95888353 -16.70092858 72 -15 C75.89450385 -14.40576819 79.33068208 -13.40996939 83 -12 C84.56234375 -11.47212891 84.56234375 -11.47212891 86.15625 -10.93359375 C105.40675797 -4.11945366 120.77071922 9.35438 129.69677734 27.76098633 C133.74894791 36.52804349 135.35309287 45.15991716 136.2668457 54.69482422 C136.59891842 58.78906917 136.59891842 58.78906917 139 62 C141.48028923 62.23382202 143.88990308 62.36741266 146.375 62.4375 C163.71804797 63.26722762 179.55604694 69.01258321 193 80 C193.94746094 80.70382812 193.94746094 80.70382812 194.9140625 81.421875 C208.48307936 91.95490179 217.42451605 110.27737869 220 127 C220.35030617 130.81234839 220.54559431 134.62615435 220.58544922 138.4543457 C220.64095015 142.34959814 220.64095015 142.34959814 222.1796875 145.84375 C224.54513177 147.34626396 226.93401575 148.27674116 229.5625 149.25 C246.7377055 156.19448742 261.19077392 170.7236513 269.08203125 187.421875 C270.44721503 191.25600818 270.99821652 195.10585641 271.4453125 199.140625 C271.87267528 202.10243737 271.87267528 202.10243737 273.53515625 204.8515625 C275.31836617 208.68427503 275.41568712 211.98770995 275.3125 216.125 C275.30049561 216.87563721 275.28849121 217.62627441 275.27612305 218.3996582 C274.7444076 239.56645826 266.81827046 258.83954771 251.52099609 273.61572266 C238.13065686 285.80243589 221.96678513 291.47652524 204.23046875 293.4375 C200.92202595 293.69442307 200.92202595 293.69442307 199 296 C198.65346244 298.9263172 198.3957527 301.81375046 198.1875 304.75 C197.44130058 313.52827664 195.4603057 320.90394125 192 329 C187.35657058 329 187.04697652 328.55778407 183.91015625 325.44140625 C183.1318042 324.67094971 182.35345215 323.90049316 181.55151367 323.10668945 C180.73013916 322.26710693 179.90876465 321.42752441 179.0625 320.5625 C178.21727783 319.70809326 177.37205566 318.85368652 176.5012207 317.97338867 C169.48561963 310.75663773 163.2377553 303.13085881 157.41162109 294.93212891 C156.40399385 293.55295873 155.35492392 292.20367985 154.27978516 290.87646484 C153.71952637 290.17859863 153.15926758 289.48073242 152.58203125 288.76171875 C152.06487549 288.13612061 151.54771973 287.51052246 151.01489258 286.8659668 C150 285 150 285 150.25927734 282.86303711 C151.12174499 280.69379169 152.17233219 279.52762478 153.8125 277.875 C160.60986211 270.11126593 161.43132298 262.21002587 161.23828125 252.22265625 C161.13144916 248.98532618 161.13144916 248.98532618 160 246 C158.0085944 245.61866701 156.00720923 245.28674418 154 245 C152.20616591 246.79383409 152.86442386 249.2333023 152.81225586 251.62573242 C152.57080378 260.591653 151.82635633 268.26302064 145.1015625 274.86328125 C140.0173351 278.94429903 135.14479562 280.80036406 128.6875 281.5 C127.470625 281.665 126.25375 281.83 125 282 C123.88512951 284.22974098 123.87203829 285.59122471 123.75 288.0625 C122.9011816 296.06197037 118.89602581 301.82331395 112.74609375 306.80859375 C106.36186315 311.16472425 99.46997071 310.68928914 92 310 C89.295468 308.95630477 87.42157301 307.64873056 85 306 C81.74723247 305.58009927 81.74723247 305.58009927 79 306 C77.75453746 307.04837476 77.75453746 307.04837476 77.63671875 309.359375 C77.72318921 312.16340601 77.72318921 312.16340601 80.08203125 313.765625 C80.98308594 314.25546875 81.88414062 314.7453125 82.8125 315.25 C83.70582031 315.75015625 84.59914063 316.2503125 85.51953125 316.765625 C88.47469865 318.23622799 90.3283223 319.08036321 93.64453125 318.68359375 C97.65660273 318.37192852 100.18809051 318.61348361 104 320 C109.01515524 324.46965182 112.69558188 330.29213206 116.47509766 335.79882812 C122.4799218 344.46669468 129.77393021 352.08900152 137.03686523 359.69580078 C137.66407471 360.35435059 138.29128418 361.01290039 138.9375 361.69140625 C139.50339844 362.28123291 140.06929687 362.87105957 140.65234375 363.47875977 C142 365 142 365 143 367 C139.33335046 367.02932237 135.6667316 367.04690637 132 367.0625 C130.97003906 367.07087891 129.94007813 367.07925781 128.87890625 367.08789062 C124.32448747 367.10239514 119.8900672 367.06941809 115.375 366.43359375 C112.13761028 365.69888638 112.13761028 365.69888638 110 367 C108.87956597 369.15217934 107.83435303 371.30192346 106.8125 373.5 C103.84805962 379.62770097 100.5506566 384.89414346 96 390 C95.12794922 391.01126953 95.12794922 391.01126953 94.23828125 392.04296875 C82.18318474 405.10897482 65.69853586 410.90353235 48.33984375 412.29296875 C33.56536136 412.6427592 17.43105026 408.95637695 5.8515625 399.1875 C4.01419793 397.75379483 4.01419793 397.75379483 1.49609375 398.140625 C-1.10255193 399.03530739 -2.76648573 400.08197319 -4.9375 401.75 C-10.80795775 405.826979 -17.21839832 407.89317181 -24 410 C-25.13888672 410.37318359 -25.13888672 410.37318359 -26.30078125 410.75390625 C-43.03724317 415.40111801 -60.81551861 410.89713948 -75.71484375 402.96875 C-86.77111273 396.34287655 -96.53419253 387.21367696 -100.8125 374.8125 C-101.80960365 372.4945299 -101.80960365 372.4945299 -104 371 C-108.86729229 369.9754362 -113.88882909 370.18067125 -118.83984375 370.1484375 C-135.40170577 369.94834911 -150.64872741 361.23438168 -162.1875 349.83984375 C-170.70033729 340.69821734 -175.23602834 330.83369877 -179 319 C-179.2371875 318.28070312 -179.474375 317.56140625 -179.71875 316.8203125 C-181.33116639 311.29541517 -181.45662036 305.60014283 -181.75390625 299.87890625 C-181.67955533 297.10567389 -181.67955533 297.10567389 -183 296 C-184.90770899 295.90440211 -186.81600318 295.81549861 -188.7253418 295.76147461 C-209.78716753 295.11219867 -227.94077242 287.90755191 -243 273 C-249.9309085 265.19052564 -254.83493271 256.53865151 -259 247 C-259.43570313 246.06671875 -259.87140625 245.1334375 -260.3203125 244.171875 C-265.76716992 230.23096721 -265.39835235 210.14365362 -260.37890625 196.1171875 C-259.92386719 195.08851563 -259.46882812 194.05984375 -259 193 C-258.73687012 192.39833008 -258.47374023 191.79666016 -258.20263672 191.17675781 C-253.7311012 181.23157696 -247.77842735 173.57222456 -240 166 C-239.32066406 165.32324219 -238.64132812 164.64648438 -237.94140625 163.94921875 C-230.26914172 156.75547383 -221.05444463 151.97715631 -211.08203125 148.82421875 C-208.82038918 148.19663075 -208.82038918 148.19663075 -208 146 C-207.90555978 144.06292618 -207.81656895 142.12535948 -207.76147461 140.18676758 C-207.27525508 124.58120676 -203.37744132 111.2370826 -195 98 C-194.34 97.67 -193.68 97.34 -193 97 C-192.93941406 97.59167969 -192.87882812 98.18335938 -192.81640625 98.79296875 C-192.37987629 102.90978208 -191.91328654 106.95544533 -191 111 C-188.66705225 111.04241723 -186.33297433 111.04092937 -184 111 C-182.27980026 109.27980026 -182.49881878 106.85089324 -182.1875 104.5 C-181.8031373 101.99749468 -181.40989987 99.49829485 -181 97 C-180.82476807 95.91936279 -180.82476807 95.91936279 -180.64599609 94.81689453 C-178.10712356 79.94819885 -178.10712356 79.94819885 -173.5625 76.3125 C-171.4765625 75.12890625 -171.4765625 75.12890625 -169 74 C-167.95585937 73.47277344 -166.91171875 72.94554687 -165.8359375 72.40234375 C-154.3119896 66.79932081 -144.76396136 65.53015567 -132.07617188 64.7890625 C-130.94115234 64.71429688 -129.80613281 64.63953125 -128.63671875 64.5625 C-127.60248779 64.50191406 -126.56825684 64.44132812 -125.50268555 64.37890625 C-122.8322126 64.22773911 -122.8322126 64.22773911 -121 62 C-120.7925184 59.542825 -120.68140377 57.14818579 -120.625 54.6875 C-119.7204444 34.80064467 -110.12374273 17.4809423 -95.875 3.875 C-67.6699818 -19.97195115 -30.42634708 -20.64477028 0 0 Z " fill="#FEA4BD" transform="translate(498,317)"/>
<path d="M0 0 C3.32597995 -0.00216975 6.65161822 -0.02033095 9.97753906 -0.03930664 C30.77214713 -0.09632495 51.10634359 1.639654 71.61816406 4.99780273 C72.43722229 5.13046539 73.25628052 5.26312805 74.10015869 5.39981079 C126.21747461 13.8793106 175.58851665 33.71810424 217.49316406 66.18530273 C218.32074219 66.81823242 219.14832031 67.45116211 220.00097656 68.10327148 C260.3479042 99.56349641 260.3479042 99.56349641 267.30566406 117.24780273 C268.71426448 120.73223535 269.31209133 120.61820037 272.49316406 122.18530273 C273.85839844 123.73144531 273.85839844 123.73144531 275.08691406 125.57983398 C275.55395752 126.2774585 276.02100098 126.97508301 276.50219727 127.69384766 C276.99421631 128.45415283 277.48623535 129.21445801 277.99316406 129.99780273 C278.51289795 130.790979 279.03263184 131.58415527 279.56811523 132.40136719 C288.4616968 146.14745155 297.79321136 160.75801762 303.49316406 176.18530273 C303.16316406 176.84530273 302.83316406 177.50530273 302.49316406 178.18530273 C301.91308594 177.77538086 301.33300781 177.36545898 300.73535156 176.94311523 C299.95417969 176.40428711 299.17300781 175.86545898 298.36816406 175.31030273 C297.60246094 174.77663086 296.83675781 174.24295898 296.04785156 173.69311523 C289.20494713 169.65433678 282.25449818 169.30975858 274.49316406 170.18530273 C268.18273487 172.1190047 263.71734226 175.29847657 259.74707031 180.53686523 C258.44907115 182.24326912 257.02049551 183.68446286 255.49316406 185.18530273 C254.89890625 184.14374023 254.30464844 183.10217773 253.69238281 182.02905273 C241.76163812 161.31416017 228.0462642 142.44204156 211.49316406 125.18530273 C210.31947266 123.94973633 210.31947266 123.94973633 209.12207031 122.68920898 C203.61941134 117.02961143 197.67121366 112.087363 191.49316406 107.18530273 C190.44396694 106.32326148 189.39581971 105.4599411 188.34863281 104.59545898 C166.70247037 86.90622529 141.6402176 73.84030537 115.49316406 64.18530273 C114.63601807 63.86037842 113.77887207 63.5354541 112.89575195 63.20068359 C90.46929192 54.81761701 67.13478988 51.12224718 43.49316406 48.18530273 C42.80208054 48.09498779 42.11099701 48.00467285 41.39897156 47.91162109 C35.61916563 47.20038281 29.91092794 47.01006442 24.09082031 46.98217773 C23.10786987 46.97516342 22.12491943 46.96814911 21.11218262 46.96092224 C17.92662976 46.94341628 14.74126337 46.93706242 11.55566406 46.93530273 C10.46414032 46.93462799 9.37261658 46.93395325 8.24801636 46.93325806 C-28.40164394 46.96914077 -63.48901973 50.80078717 -98.50683594 62.18530273 C-99.42384277 62.48275391 -100.34084961 62.78020508 -101.28564453 63.08666992 C-120.71488914 69.50870003 -139.67482505 78.00923554 -156.93261719 89.05249023 C-159.50683594 90.18530273 -159.50683594 90.18530273 -161.68652344 89.64233398 C-171.14760456 82.06940854 -177.00943201 63.62579118 -179.50683594 52.18530273 C-151.6536346 32.45595179 -118.10917857 18.88087323 -85.09228516 10.82055664 C-82.48497539 10.17993152 -79.88884868 9.50366595 -77.29199219 8.82202148 C-65.20449131 5.71919059 -53.13928692 3.85333342 -40.73901367 2.49487305 C-38.53550128 2.23158586 -38.53550128 2.23158586 -36.53881836 1.68359375 C-24.95534569 -1.15695265 -11.82758491 -0.00085981 0 0 Z " fill="#3AAED4" transform="translate(502.5068359375,212.814697265625)"/>
<path d="M0 0 C4.53653015 3.02435343 7.24259558 5.9984326 8.83984375 11.2578125 C8.8125 14.875 8.8125 14.875 6.234375 17.5078125 C5.02395228 18.35814289 3.79880106 19.18775335 2.5625 20 C-12.21240988 30.65962578 -22.09835697 46.15672241 -30.8125 61.9375 C-31.15563232 62.5444873 -31.49876465 63.15147461 -31.85229492 63.77685547 C-33.90129629 67.62280487 -34.63935562 70.53073097 -34.1875 74.875 C-33.12104885 76.17133621 -33.12104885 76.17133621 -30.625 75.9375 C-29.820625 75.916875 -29.01625 75.89625 -28.1875 75.875 C-27.76621826 75.07618408 -27.76621826 75.07618408 -27.33642578 74.26123047 C-4.35615123 30.9389847 -4.35615123 30.9389847 13.8125 22.875 C18.35644517 21.56482914 21.63406052 21.47477527 26.125 23 C31.54849848 26.78383615 34.14725915 31.34447177 35.359375 37.77734375 C35.57734212 41.0342755 35.57936021 43.69427299 34.8125 46.875 C32.64746827 48.93737936 30.47440068 49.98043291 27.7890625 51.2890625 C13.86038213 58.71038039 3.78261621 74.30763064 -4.9375 87 C-5.36820801 87.61520508 -5.79891602 88.23041016 -6.24267578 88.86425781 C-8.53131363 92.29674075 -9.82736023 94.71590847 -9.1875 98.875 C-8.14282158 100.11666406 -8.14282158 100.11666406 -5.859375 100.234375 C-3.04378962 100.13638672 -3.04378962 100.13638672 -1.265625 97.890625 C-0.66234375 96.97796875 -0.0590625 96.0653125 0.5625 95.125 C1.25214844 94.11824219 1.94179688 93.11148438 2.65234375 92.07421875 C3.36519531 91.01847656 4.07804688 89.96273437 4.8125 88.875 C27.1505672 57.60170592 27.1505672 57.60170592 40.8125 54.875 C45.09557812 54.875 46.39729636 55.5059301 49.625 58.375 C50.346875 59.2 51.06875 60.025 51.8125 60.875 C52.1425 61.205 52.4725 61.535 52.8125 61.875 C54.66398495 75.06683029 49.05381783 84.67911882 41.5625 94.9375 C39.99892594 96.9323136 38.41483147 98.91118255 36.8125 100.875 C36.38952637 101.39416992 35.96655273 101.91333984 35.53076172 102.44824219 C30.42927128 108.67603571 25.11544979 114.67610015 19.625 120.5625 C5.46973575 135.83783531 -3.22866023 151.51008921 -7.875 171.890625 C-9.28356644 177.7713899 -11.18794536 180.43211593 -16.25 183.81640625 C-24.8578469 188.51948389 -36.01888944 185.77815166 -44.99609375 183.53125 C-48.15597181 182.88148315 -50.9721138 182.75860593 -54.1875 182.875 C-54.60496608 185.74864791 -54.60496608 185.74864791 -54.1875 188.875 C-47.06213951 194.74294394 -37.01542 195.05404414 -28.1875 195.0625 C-27.51460937 195.07474609 -26.84171875 195.08699219 -26.1484375 195.09960938 C-21.418075 195.11330734 -17.62804298 194.33783512 -13.1875 192.875 C-9.65134943 197.18468351 -8.56779449 200.15780085 -8.87890625 205.7578125 C-9.33875326 208.91271222 -9.94913708 210.56668824 -12.1875 212.875 C-37.28766342 220.49420999 -69.47403115 210.7794672 -91.984375 198.84375 C-99.32398944 194.33257235 -105.88000394 189.583664 -108.4375 181.0625 C-109.2448022 177.36963791 -109.29493493 174.50934447 -108.1875 170.875 C-105.625 168.5625 -105.625 168.5625 -103.1875 166.875 C-98.83912371 168.77247329 -95.84240006 171.79920269 -92.40625 175 C-88.33313253 178.4420711 -85.53536628 179.23152442 -80.1875 178.875 C-78.94192453 177.82534468 -78.94192453 177.82534468 -78.8125 175.5078125 C-78.89902204 172.70287305 -78.89902204 172.70287305 -81.3125 171.2421875 C-82.26125 170.74976563 -83.21 170.25734375 -84.1875 169.75 C-93.06367519 164.49978813 -98.24770039 156.63445105 -101.1875 146.875 C-101.78079865 144.16149194 -102.17935038 141.43756574 -102.5625 138.6875 C-105.44431331 120.20427959 -109.36420851 102.3830301 -119.5625 86.4375 C-122.32563286 81.97626932 -123.87281092 78.17714235 -123.1875 72.875 C-121.02073258 66.2959062 -117.86288371 61.78470878 -112.1875 57.875 C-107.74020534 55.65135267 -101.62965531 56.2116464 -96.9296875 57.48828125 C-87.14357985 61.84405858 -82.08336448 71.38795248 -78.1875 80.875 C-73.75086448 92.59156378 -73.77533867 103.61798164 -74.23754883 115.97998047 C-74.40468517 117.88721203 -74.40468517 117.88721203 -73.1875 118.875 C-71.18791636 118.91580783 -69.18704746 118.91754356 -67.1875 118.875 C-65.5114762 113.7674334 -64.94133645 109.49687756 -65 104.0625 C-65.00966797 102.10376953 -65.00966797 102.10376953 -65.01953125 100.10546875 C-65.08383105 96.99690615 -65.44272074 94.01144488 -65.87109375 90.93359375 C-66.42423482 85.62475768 -65.33960758 81.67770015 -63.4375 76.75 C-62.96920776 75.48289185 -62.96920776 75.48289185 -62.49145508 74.19018555 C-53.23375696 49.7803 -39.26016724 13.79311709 -15.0625 0.25 C-9.87928358 -1.95495699 -5.34977793 -1.88815692 0 0 Z " fill="#FDF1F6" transform="translate(888.1875,335.125)"/>
<path d="M0 0 C23.22968782 16.51888911 35.64949528 46.25519588 45.8125 72 C46.09319336 72.70640625 46.37388672 73.4128125 46.66308594 74.140625 C49.30662893 80.92259087 51.50238892 86.92625941 50.21875 94.2578125 C49.67307968 97.94108715 49.63967021 101.59758279 49.625 105.3125 C49.61251221 105.99497803 49.60002441 106.67745605 49.5871582 107.38061523 C49.57683541 111.37258834 50.05460995 114.40778991 51.8125 118 C53.81204746 118.04254356 55.81291636 118.04080783 57.8125 118 C59.06460562 116.97985603 59.06460562 116.97985603 58.84667969 114.82958984 C58.79108887 113.40960693 58.79108887 113.40960693 58.734375 111.9609375 C58.3773593 99.26639577 58.32962742 88.68717575 63.8125 77 C64.28171875 75.97648437 64.7509375 74.95296875 65.234375 73.8984375 C68.79690295 66.79253498 73.0767953 61.63197377 79.5625 57.0625 C85.38755896 55.1581538 91.97549126 54.70062688 97.625 57.4375 C102.60004962 60.87437003 105.96306569 65.69381855 107.46484375 71.5390625 C108.03119148 78.27561971 105.65806908 82.62830848 102.16064453 88.25146484 C93.19568051 102.87191513 89.2686242 120.35615333 86.67773438 137.13696289 C84.93707147 148.39891229 82.50678663 157.03975258 73.8125 165 C71.17214961 166.81933632 68.51897555 168.54045996 65.75390625 170.1640625 C63.46153723 171.92555876 63.46153723 171.92555876 63.52734375 175.2109375 C63.62144531 176.13132812 63.71554688 177.05171875 63.8125 178 C67.01126496 179.02383616 68.38886535 179.19300967 71.49609375 177.77734375 C76.81596314 174.22321824 81.51931204 170.75731639 85.8125 166 C89.21607628 167.45867555 91.60075606 168.99834751 93.8125 172 C94.47998879 177.08960205 94.22457347 180.73539578 91.30078125 185.15625 C75.07049318 205.26306357 44.19036006 211.37564874 19.8125 214 C16.45502638 214.26222693 13.11724834 214.40419949 9.75 214.4375 C8.68930298 214.45272705 8.68930298 214.45272705 7.60717773 214.46826172 C2.62456502 214.38263531 -0.83879401 213.26769643 -5.1875 211 C-7.61810124 207.19558067 -7.6532374 203.42450535 -7.1875 199 C-5.4375 195.5625 -5.4375 195.5625 -3.1875 193 C0.8125 193 0.8125 193 3.8125 194 C15.89083241 194.68343121 26.52420805 193.66961717 37.8125 189 C37.85504356 187.00045254 37.85330783 184.99958364 37.8125 183 C37.4825 182.67 37.1525 182.34 36.8125 182 C32.83720983 182.34269743 29.41670975 182.8079187 25.60546875 184.01953125 C21.21508835 185.15442876 17.26044218 185.36747633 12.75 185.375 C11.97333984 185.39949219 11.19667969 185.42398438 10.39648438 185.44921875 C3.88323012 185.48230895 0.48903333 183.30479259 -4.4375 179.0625 C-7.98467303 174.88190321 -8.79925682 169.6650725 -10 164.4375 C-14.20631828 147.05746045 -22.24528621 133.3798802 -34.59814453 120.64111328 C-69.5935662 84.50605577 -69.5935662 84.50605577 -69.625 67.4375 C-69.45802569 62.98232189 -68.17223477 60.3880773 -65.1875 57 C-62.55348632 54.90629682 -61.19343816 53.94705589 -57.8125 54.125 C-56.513125 54.558125 -56.513125 54.558125 -55.1875 55 C-54.15625 55.33 -53.125 55.66 -52.0625 56 C-35.6227418 63.49198484 -23.37721318 82.16621102 -14.1875 97 C-14.1875 97.66 -14.1875 98.32 -14.1875 99 C-11.8775 99 -9.5675 99 -7.1875 99 C-6.14417221 95.27065811 -5.89603675 93.57679043 -7.671875 90.0625 C-8.41953125 89.051875 -9.1671875 88.04125 -9.9375 87 C-10.34218506 86.44602539 -10.74687012 85.89205078 -11.16381836 85.32128906 C-12.48416129 83.53073853 -13.83198048 81.7640388 -15.1875 80 C-15.64334473 79.39994141 -16.09918945 78.79988281 -16.56884766 78.18164062 C-19.70584665 74.06370877 -22.92144845 70.01607111 -26.1875 66 C-26.87714844 65.14148438 -27.56679687 64.28296875 -28.27734375 63.3984375 C-33.71936502 56.92143059 -40.30706803 51.32109805 -47.98828125 47.66796875 C-50.1875 46 -50.1875 46 -50.78125 43.07421875 C-50.57506058 35.62562583 -50.20645118 30.62274141 -45.3125 24.75 C-41.84817316 21.89702496 -39.45418426 20.97564069 -34.9375 21.0625 C-18.1478175 25.25992063 -6.78013907 42.00314922 1.8125 56 C5.36954048 62.21843998 8.62912098 68.58394185 11.8125 75 C13.81204746 75.04254356 15.81291636 75.04080783 17.8125 75 C18.1425 74.67 18.4725 74.34 18.8125 74 C18.4913585 67.9296424 16.38109812 63.64761948 13.375 58.4375 C12.70392212 57.25776611 12.70392212 57.25776611 12.01928711 56.05419922 C2.31885256 39.28948394 -9.17762814 25.06441406 -25.1875 14 C-24.48779714 8.98313052 -23.39157942 6.00509928 -20.1875 2 C-14.16013973 -2.38825025 -6.95917017 -2.18326907 0 0 Z " fill="#FDF1F6" transform="translate(127.1875,339)"/>
<path d="M0 0 C8.15942837 -0.79467133 13.58480809 0.16511183 20.24707031 5.05664062 C29.08952762 12.47203469 35.18980223 20.23546981 40.83691406 30.22851562 C41.29324219 30.99164063 41.74957031 31.75476563 42.21972656 32.54101562 C44.83691406 36.93349814 44.83691406 36.93349814 44.83691406 39.22851562 C43.81339844 39.25429687 42.78988281 39.28007812 41.73535156 39.30664062 C5.72813662 40.53556993 -30.97167181 47.95792025 -65.16308594 59.22851562 C-66.05350586 59.52161621 -66.94392578 59.8147168 -67.86132812 60.11669922 C-105.10284887 72.59563917 -140.96354207 90.76692226 -173.16308594 113.22851562 C-173.69627441 113.5986377 -174.22946289 113.96875977 -174.77880859 114.35009766 C-191.86534343 126.24504808 -207.97210835 139.34903291 -223.21386719 153.52539062 C-225.4173609 155.56851918 -227.67495907 157.53751727 -229.95214844 159.49804688 C-234.57344637 163.52698291 -238.90281153 167.82124237 -243.22558594 172.16601562 C-243.98935547 172.92591797 -244.753125 173.68582031 -245.54003906 174.46875 C-250.28826268 179.22509718 -254.80106537 184.11703988 -259.16308594 189.22851562 C-260.44892578 190.70964844 -260.44892578 190.70964844 -261.76074219 192.22070312 C-272.66378734 204.97260063 -283.15214849 218.0580898 -292.16308594 232.22851562 C-292.82308594 233.21851563 -293.48308594 234.20851563 -294.16308594 235.22851562 C-297.67629817 233.75092301 -299.67637091 231.78026971 -302.22558594 228.97851562 C-309.82336263 221.28142159 -317.07819093 217.64979498 -327.92480469 217.23632812 C-328.6634375 217.23375 -329.40207031 217.23117187 -330.16308594 217.22851562 C-328.56055137 212.69090416 -326.21953925 208.83523294 -323.66308594 204.79101562 C-323.2194873 204.08654297 -322.77588867 203.38207031 -322.31884766 202.65625 C-317.86341247 195.64968078 -313.09077327 188.90826957 -308.16308594 182.22851562 C-307.69112793 181.58382324 -307.21916992 180.93913086 -306.73291016 180.27490234 C-300.7804096 172.15428545 -294.67078129 164.23837376 -288.08422852 156.62109375 C-286.20465664 154.44621491 -284.34413517 152.25764368 -282.50195312 150.05102539 C-275.61609786 141.83984714 -268.34981678 134.13040776 -260.734375 126.59399414 C-258.89481135 124.77292476 -257.06361452 122.94374059 -255.23339844 121.11328125 C-249.37898499 115.27629518 -243.49417148 109.55288818 -237.16308594 104.22851562 C-236.14131249 103.340273 -235.12043435 102.4509991 -234.10058594 101.56054688 C-225.73642691 94.3865009 -217.08127672 87.69896018 -208.16308594 81.22851562 C-207.3904541 80.66729004 -206.61782227 80.10606445 -205.82177734 79.52783203 C-193.65534133 70.73864354 -181.19208445 62.67756342 -168.16308594 55.22851562 C-167.31584961 54.7417334 -166.46861328 54.25495117 -165.59570312 53.75341797 C-142.75701245 40.71930248 -118.95948956 29.95398317 -94.16308594 21.22851562 C-92.85962026 20.75738345 -91.55622507 20.28605617 -90.25292969 19.81445312 C-61.17698264 9.6526227 -30.58232244 3.23081871 0 0 Z " fill="#FDA4BD" transform="translate(444.1630859375,110.771484375)"/>
<path d="M0 0 C4.62479318 13.1798454 8.19023163 26.42760244 10.5078125 40.21484375 C10.90706387 42.23621553 10.90706387 42.23621553 13 44 C11.99710937 44.02578125 10.99421875 44.0515625 9.9609375 44.078125 C-16.7769011 44.99349092 -43.98437573 47.67244944 -70 54 C-71.07668945 54.26184082 -72.15337891 54.52368164 -73.26269531 54.79345703 C-102.68961859 62.08836658 -130.88027935 73.18980332 -157.36328125 87.98046875 C-158.27779053 88.4904541 -159.1922998 89.00043945 -160.13452148 89.52587891 C-161.93701635 90.53656066 -163.73487943 91.55555558 -165.52758789 92.58349609 C-166.34090576 93.04191895 -167.15422363 93.5003418 -167.9921875 93.97265625 C-168.71776855 94.38781494 -169.44334961 94.80297363 -170.19091797 95.23071289 C-171.08641357 95.61151001 -171.08641357 95.61151001 -172 96 C-172.66 95.67 -173.32 95.34 -174 95 C-174.57836914 92.8828125 -174.57836914 92.8828125 -175.03515625 90.125 C-175.20466797 89.14015625 -175.37417969 88.1553125 -175.54882812 87.140625 C-175.71833984 86.10421875 -175.88785156 85.0678125 -176.0625 84 C-176.40414336 81.95776017 -176.74902008 79.9160577 -177.09765625 77.875 C-177.24726807 76.96492188 -177.39687988 76.05484375 -177.55102539 75.1171875 C-177.79383453 73.0244868 -177.79383453 73.0244868 -179 72 C-181.33944736 72.28730055 -183.6739143 72.61936779 -186 73 C-186.13051758 73.72477539 -186.26103516 74.44955078 -186.39550781 75.19628906 C-187.00464956 78.54923567 -187.62725415 81.89955451 -188.25 85.25 C-188.55744141 86.95929688 -188.55744141 86.95929688 -188.87109375 88.703125 C-192.96340354 110.52877723 -192.96340354 110.52877723 -199.77050781 115.50830078 C-200.36186523 115.89743652 -200.95322266 116.28657227 -201.5625 116.6875 C-202.81980449 117.59395167 -204.07630586 118.50151828 -205.33203125 119.41015625 C-205.95287598 119.84473145 -206.5737207 120.27930664 -207.21337891 120.72705078 C-209.81787712 122.58272906 -212.28156267 124.59320494 -214.75 126.625 C-216.07064453 127.71167969 -216.07064453 127.71167969 -217.41796875 128.8203125 C-220.86864414 131.7332881 -224.22693475 134.73754671 -227.5625 137.78125 C-229.11190456 139.19160543 -230.67322036 140.58906782 -232.25 141.96875 C-237.93645596 146.96360996 -243.3270846 152.22112795 -248.6875 157.5625 C-249.40043213 158.27083984 -250.11336426 158.97917969 -250.84790039 159.70898438 C-255.43585998 164.31027021 -259.77304454 169.06669545 -264 174 C-264.845625 174.96421875 -265.69125 175.9284375 -266.5625 176.921875 C-282.16864302 195.02900248 -296.20291271 214.60786473 -308.14794922 235.31958008 C-309.85886618 238.2590064 -311.5403694 240.66263555 -314 243 C-314.22026855 242.49364014 -314.44053711 241.98728027 -314.66748047 241.46557617 C-318.93488529 231.703202 -323.34769554 222.055141 -328.3125 212.625 C-328.72032715 211.84793701 -329.1281543 211.07087402 -329.54833984 210.27026367 C-331.33714384 206.91616442 -333.106438 203.85419935 -335.35546875 200.7734375 C-337 198 -337 198 -337.0234375 195.55859375 C-335.63943445 192.09858612 -333.72641667 189.11664898 -331.625 186.0625 C-330.9599646 185.08168457 -330.9599646 185.08168457 -330.28149414 184.08105469 C-325.50763277 177.13209072 -320.30770997 170.54478565 -315 164 C-314.21496094 163.0203125 -313.42992187 162.040625 -312.62109375 161.03125 C-308.34488774 155.73619142 -303.92820974 150.60537886 -299.3359375 145.58203125 C-298.06349746 144.17553817 -296.7972297 142.76291738 -295.56445312 141.3215332 C-290.70839082 135.65540196 -285.52421792 130.33805471 -280.24951172 125.06420898 C-278.76106763 123.57358385 -277.28082723 122.07512983 -275.80078125 120.57617188 C-270.2724503 115.01621051 -264.60314756 109.85153007 -258.44482422 104.97729492 C-255.99047568 102.99229704 -253.67942543 100.90614931 -251.375 98.75 C-244.999992 92.95819462 -238.13909571 87.82238083 -231.24121094 82.67626953 C-229.79190149 81.59228711 -228.34691441 80.5024908 -226.90722656 79.40576172 C-214.24126086 69.75736456 -200.75668098 61.6587357 -186.98144531 53.72558594 C-184.57385701 52.33213407 -182.18429974 50.91688589 -179.8046875 49.4765625 C-134.83679625 22.61475511 -82.06332369 8.47195004 -30.5625 1.75 C-29.89762573 1.66078278 -29.23275146 1.57156555 -28.54772949 1.47964478 C-18.95352076 0.20585503 -9.65774371 -0.21731864 0 0 Z " fill="#F9D005" transform="translate(493,159)"/>
<path d="M0 0 C0 2.64 0 5.28 0 8 C-1.299375 7.979375 -2.59875 7.95875 -3.9375 7.9375 C-5.29165633 7.91600546 -6.64756083 7.92851801 -8 8 C-9.24660324 9.05054601 -9.24660324 9.05054601 -9.375 11.375 C-9.25125 12.24125 -9.1275 13.1075 -9 14 C7.53563792 25.40693739 33.49842518 30.0857207 53.16015625 26.61914062 C57.61356319 25.53456339 61.90075163 24.04962419 66 22 C66.04254356 20.00045254 66.04080783 17.99958364 66 16 C65.505 15.505 65.505 15.505 65 15 C63.02 15 61.04 15 59 15 C59 10.71 59 6.42 59 2 C68.59716312 6.89267139 68.59716312 6.89267139 71 12 C73.55700697 21.82598275 68.57079359 29.92704604 64.265625 38.4140625 C59.91705624 47.01543219 56.87841903 56.01513181 56.8671875 65.703125 C56.86589844 66.7653125 56.86460937 67.8275 56.86328125 68.921875 C56.86714844 70.02015625 56.87101563 71.1184375 56.875 72.25 C56.87113281 73.36375 56.86726562 74.4775 56.86328125 75.625 C56.86457031 76.68203125 56.86585938 77.7390625 56.8671875 78.828125 C56.86887939 80.2807373 56.86887939 80.2807373 56.87060547 81.76269531 C56.74949961 83.97119956 56.74949961 83.97119956 58 85 C60.5 85.16666667 60.5 85.16666667 63 85 C64.90819026 83.09180974 64.1386838 80.26138194 64.1875 77.71582031 C64.63586158 58.68147027 69.53172498 39.71233837 82.875 25.4375 C93.44903558 15.91875739 103.63520016 12.3632669 117.69921875 12.68359375 C123.56485263 12.99244735 128.66308325 14.59284467 134 17 C134.78632812 17.350625 135.57265625 17.70125 136.3828125 18.0625 C146.46945894 23.12339577 154.09310214 30.89485722 159 41 C159.61875 42.22783203 159.61875 42.22783203 160.25 43.48046875 C164.77036547 53.85533533 164.57006549 67.33083876 161 78 C160.75507812 78.7940625 160.51015625 79.588125 160.2578125 80.40625 C156.17411349 92.11526309 147.08269979 101.94955398 136.1875 107.75 C126.71810274 112.05470342 117.92168526 113.48407425 107.5625 113.3125 C106.42723877 113.3012207 105.29197754 113.28994141 104.12231445 113.27832031 C72.31132189 112.76859325 32.90001574 108.2463401 9 85 C-1.47486953 73.07280887 -3.69183512 62.31646082 -3 47 C0.84959882 45.53659318 3.37562188 46.5236571 7.1875 47.8125 C16.37318326 50.88920407 24.49320757 52.32919095 34.1875 52.25 C35.14591797 52.25773438 36.10433594 52.26546875 37.09179688 52.2734375 C42.12458976 52.25952515 46.28842398 51.99549102 51 50 C51.33 47.69 51.66 45.38 52 43 C51.26700684 43.0314209 50.53401367 43.0628418 49.77880859 43.09521484 C28.12448988 43.89572546 5.45507913 43.04589928 -12 28.5 C-16.03360548 23.45799315 -17.71091945 19.51676164 -17 13 C-14.65919966 7.00169913 -8.71102884 3.26899223 -3.0625 0.625 C-1 0 -1 0 0 0 Z " fill="#FDF1F6" transform="translate(556,846)"/>
<path d="M0 0 C6.94747603 0.6947476 12.63382349 3.22314785 17.5 8.25 C19.91390486 11.34322781 20.80825247 13.92172282 20.44140625 17.95703125 C19.17524865 23.817212 16.93178821 27.68781 12 31.1875 C-4.0525448 40.81902688 -19.99587285 43.53308605 -38.39111328 43.02856445 C-39.47634277 43.00109131 -40.56157227 42.97361816 -41.6796875 42.9453125 C-42.65663574 42.90937988 -43.63358398 42.87344727 -44.64013672 42.83642578 C-47.19149627 42.75381739 -47.19149627 42.75381739 -49 45 C-48.67958603 47.60280568 -48.67958603 47.60280568 -48 50 C-42.76190528 52.13089429 -38.12640569 52.34857414 -32.5625 52.3125 C-31.68013672 52.30831055 -30.79777344 52.30412109 -29.88867188 52.29980469 C-17.67915437 52.09203955 -6.44378305 49.19818484 5 45 C7.9261985 50.852397 6.60164059 60.41069635 5.1640625 66.59765625 C-0.28919489 81.95095474 -11.6214226 91.5451244 -25.9375 98.6875 C-46.12695029 107.86834264 -69.91239352 112.52973825 -92 113 C-92.91604004 113.02578125 -93.83208008 113.0515625 -94.77587891 113.078125 C-114.63675243 113.58583226 -130.83000061 112.38177621 -146 98.1328125 C-157.12634876 86.26760465 -160.73698342 72.04338705 -160.30859375 56.15625 C-159.68158514 44.64634918 -153.19419656 33.7579745 -145.0625 25.8125 C-132.38847781 15.18125782 -118.17705181 11.60903248 -102 13 C-90.37760566 15.28057476 -81.31622614 22.73374055 -74.61328125 32.25390625 C-70.61733423 38.51003771 -67.30830891 44.937946 -65 52 C-64.48759766 53.47726562 -64.48759766 53.47726562 -63.96484375 54.984375 C-62.4201254 60.47522731 -62.30929399 66.21079933 -61.9375 71.875 C-61.78398255 74.14350581 -61.62664771 76.41175767 -61.46484375 78.6796875 C-61.36610962 80.17604736 -61.36610962 80.17604736 -61.26538086 81.70263672 C-61.24549989 83.96159797 -61.24549989 83.96159797 -60 85 C-57.54190002 85.2500773 -57.54190002 85.2500773 -55 85 C-52.5423363 82.5423363 -52.69368195 81.06036556 -52.61938477 77.69506836 C-52.66569225 59.59286798 -57.37568548 43.42274682 -66.4375 27.75 C-68.94696476 22.77509619 -69.10335477 17.39417889 -68 12 C-66.10815788 8.79615308 -63.95239974 6.27107672 -61 4 C-60.34 4 -59.68 4 -59 4 C-59 7.3 -59 10.6 -59 14 C-60.32 14.66 -61.64 15.32 -63 16 C-63 17.98 -63 19.96 -63 22 C-61.25093469 22.64836042 -59.50070781 23.29358784 -57.75 23.9375 C-56.77546875 24.29714844 -55.8009375 24.65679688 -54.796875 25.02734375 C-34.76994152 31.99201754 -10.12071872 25.21469229 8.33203125 16.41015625 C10.85274397 15.24549902 10.85274397 15.24549902 12 14 C12.16666667 11.5 12.16666667 11.5 12 9 C11.67 8.67 11.34 8.34 11 8 C7.09467317 8.37793485 3.7184246 8.76052513 0 10 C0 6.7 0 3.4 0 0 Z " fill="#FDF1F6" transform="translate(447,846)"/>
<path d="M0 0 C28.46682594 1.37460096 56.14273067 3.61809067 84 10 C85.28342285 10.28311035 86.5668457 10.5662207 87.88916016 10.85791016 C98.25313062 13.17747122 108.31106287 16.11646552 118.375 19.5 C119.14869934 19.75844696 119.92239868 20.01689392 120.71954346 20.28317261 C135.59170079 25.27640607 149.85150038 31.20332854 164 38 C164.97598145 38.4626123 165.95196289 38.92522461 166.95751953 39.40185547 C177.31478882 44.33113872 187.38618592 49.64238731 197.25 55.5 C198.10263428 56.00466797 198.95526855 56.50933594 199.83374023 57.02929688 C200.61563721 57.50431641 201.39753418 57.97933594 202.203125 58.46875 C202.89051758 58.88576172 203.57791016 59.30277344 204.28613281 59.73242188 C206 61 206 61 208 64 C206.43880578 64.79423861 204.87598036 65.58527123 203.3125 66.375 C202.44238281 66.81585938 201.57226562 67.25671875 200.67578125 67.7109375 C195.62653866 70.14341933 191.27839043 71.39348163 185.6875 72.125 C184.43324219 72.29257813 183.17898438 72.46015625 181.88671875 72.6328125 C180.45779297 72.81457031 180.45779297 72.81457031 179 73 C178.67 74.98 178.34 76.96 178 79 C181.58064744 81.38709829 183.80339484 81.41821865 188.0625 81.8125 C201.07612486 83.33096389 210.72075655 90.00951538 219.4140625 99.6875 C229.45808199 112.38921537 239.2027875 130.78377229 241 147 C236.28166297 143.15949312 232.00630232 139.02238021 227.75 134.6875 C223.01056617 129.88421253 218.14862047 125.43264792 212.83813477 121.25366211 C210.14436979 119.11463893 207.50353921 116.92322278 204.86328125 114.71875 C175.24283741 90.47570888 140.38533359 74.75416486 104.25 63 C103.55859924 62.77407166 102.86719849 62.54814331 102.15484619 62.31536865 C85.79801369 57.00824655 69.30235266 53.45950133 52.3125 50.875 C51.47493164 50.74582184 50.63736328 50.61664368 49.77441406 50.48355103 C35.00449468 48.22468592 20.34774011 46.86960982 5.421875 46.17333984 C-0.72380198 45.86202202 -6.86130813 45.42558607 -13 45 C-12.34 44.01 -11.68 43.02 -11 42 C-10.5180837 39.53752523 -10.11326749 37.10481899 -9.75 34.625 C-8.60552774 27.5007971 -6.93146311 20.62056038 -4.9375 13.6875 C-4.68000977 12.78660645 -4.42251953 11.88571289 -4.15722656 10.95751953 C-3.02624132 7.10587834 -1.88159842 3.55927729 0 0 Z " fill="#F9D005" transform="translate(522,158)"/>
<path d="M0 0 C1.03769531 0.12334717 2.07539062 0.24669434 3.14453125 0.3737793 C29.46022945 3.68617192 54.83266858 9.69673287 80 18 C80.8873584 18.28987793 81.7747168 18.57975586 82.68896484 18.87841797 C101.67714029 25.12755237 120.31988267 32.66209776 138.02197266 41.96826172 C140.12279878 43.0640518 142.23777556 44.1286096 144.35546875 45.19140625 C158.78840758 52.51599618 172.53692307 61.02461538 186 70 C183.30073045 81.90547391 175.6049163 92.7051023 168 102 C164.52015563 101.34683834 162.04166773 99.95316369 159.0546875 98.078125 C158.07363037 97.47121826 157.09257324 96.86431152 156.08178711 96.23901367 C155.02354736 95.58263916 153.96530762 94.92626465 152.875 94.25 C106.04038908 65.73322889 55.05008283 48.90967257 1 41 C-0.17941162 40.82525146 -1.35882324 40.65050293 -2.57397461 40.47045898 C-11.85311295 39.1574252 -21.0903154 38.41747548 -30.4375 37.875 C-31.86266025 37.78825253 -33.28779074 37.70101483 -34.71289062 37.61328125 C-38.14160494 37.40323792 -41.57066607 37.19970468 -45 37 C-40.22104726 21.90468253 -29.00606889 9.65807819 -16.578125 0.30078125 C-10.98375778 -1.73297889 -5.82102835 -0.74448322 0 0 Z " fill="#FDA3BC" transform="translate(571,112)"/>
<path d="M0 0 C2.18260263 2.18260263 2.56910524 3.32637126 3.4453125 6.2265625 C3.71327637 7.08572266 3.98124023 7.94488281 4.25732422 8.83007812 C4.54365723 9.75240234 4.82999023 10.67472656 5.125 11.625 C12.25048232 33.66629166 23.26981867 54.61335157 43.91015625 66.58984375 C44.59980469 67.05519531 45.28945313 67.52054687 46 68 C46 68.66 46 69.32 46 70 C44.41427057 71.06117255 42.77825208 72.0474337 41.125 73 C18.06473871 87.31633188 8.55787916 113.29886707 1 138 C-0.6976262 135.45356071 -1.48985196 133.83247373 -2.375 131 C-9.97861406 107.52818074 -21.36899011 82.60278536 -44.3828125 70.77734375 C-44.91648437 70.52082031 -45.45015625 70.26429687 -46 70 C-46 69.34 -46 68.68 -46 68 C-44.19921875 66.84375 -44.19921875 66.84375 -41.6875 65.5 C-18.48192456 51.8515868 -9.29277922 27.27504138 -1.64501953 2.80322266 C-1 1 -1 1 0 0 Z " fill="#FCF0F5" transform="translate(507,34)"/>
<path d="M0 0 C0.66 0 1.32 0 2 0 C2.17015625 0.54712646 2.3403125 1.09425293 2.515625 1.65795898 C10.99670453 28.6603854 21.47401268 53.16152887 47 68 C44.67105228 70.50983686 42.16392984 72.30296003 39.3125 74.1875 C19.02650881 88.28154621 8.39859573 112.84601173 2 136 C1.34 136 0.68 136 0 136 C-0.1544458 135.4738208 -0.3088916 134.9476416 -0.46801758 134.40551758 C-6.05911238 115.71943712 -13.38766206 97.34250166 -27 83 C-27.56976563 82.35289062 -28.13953125 81.70578125 -28.7265625 81.0390625 C-33.41666873 75.94885242 -39.0837209 72.51981162 -45 69 C-42.68765866 66.50863869 -40.21050483 64.73833175 -37.375 62.875 C-18.25551908 49.52743785 -5.40225745 24.62888908 -0.3359375 2.0390625 C-0.22507812 1.36617188 -0.11421875 0.69328125 0 0 Z " fill="#FDF1F6" transform="translate(310,261)"/>
<path d="M0 0 C2.17095348 2.17095348 2.53070713 3.23777151 3.375 6.12109375 C11.17095535 31.65175053 22.84671508 54.68795988 47 68 C44.77742849 69.68280414 42.53741895 71.32909337 40.265625 72.9453125 C29.04117522 81.05832154 21.85661435 89.95071956 15 102 C14.48695313 102.8765625 13.97390625 103.753125 13.4453125 104.65625 C7.76086763 115.10333787 4.58538002 126.70975063 1 138 C-1.34985735 134.47521398 -2.38030769 130.87540664 -3.625 126.875 C-8.36850825 112.2515219 -14.67765057 99.24872603 -24 87 C-24.50015625 86.31550781 -25.0003125 85.63101563 -25.515625 84.92578125 C-29.09484226 80.34890861 -33.57108939 77.19942569 -38.31640625 73.89453125 C-40.96497139 72.02472907 -43.48812754 70.04856144 -46 68 C-45.27554688 67.55269531 -44.55109375 67.10539062 -43.8046875 66.64453125 C-42.83789062 66.03996094 -41.87109375 65.43539062 -40.875 64.8125 C-39.92367187 64.22082031 -38.97234375 63.62914062 -37.9921875 63.01953125 C-17.39268372 49.11621082 -8.66673435 25.82449254 -1.70507812 3.046875 C-1 1 -1 1 0 0 Z " fill="#FDF1F6" transform="translate(773,166)"/>
<path d="M0 0 C4.79161959 4.07867965 8.77313384 8.69485701 12.2578125 13.921875 C12.34352343 16.80075394 11.67217253 18.41578751 9.85498047 20.63525391 C8.01628281 22.55773773 6.12472938 24.40303209 4.1953125 26.234375 C3.53208984 26.87955078 2.86886719 27.52472656 2.18554688 28.18945312 C0.55163579 29.77634518 -1.09086897 31.35313828 -2.7421875 32.921875 C-1.46601563 32.97085938 -0.18984375 33.01984375 1.125 33.0703125 C2.79429322 33.14533691 4.46356296 33.22088488 6.1328125 33.296875 C7.39544922 33.34328125 7.39544922 33.34328125 8.68359375 33.390625 C9.48925781 33.42929687 10.29492188 33.46796875 11.125 33.5078125 C11.86862793 33.5392334 12.61225586 33.5706543 13.37841797 33.60302734 C15.2578125 33.921875 15.2578125 33.921875 17.2578125 35.921875 C18.80599006 47.82123977 15.81784202 59.41405483 8.75 69.06640625 C2.63943177 76.66462591 -4.2926539 81.90192153 -13.99609375 83.23046875 C-22.76050986 83.71985239 -29.71888765 80.34958061 -36.328125 74.71875 C-46.48177101 64.2615066 -50.17880388 50.72466065 -50.10571289 36.50146484 C-49.82702561 25.05918443 -46.01172098 14.80686036 -38.7421875 5.921875 C-35.90842419 3.30500539 -32.9515587 1.05523609 -29.7421875 -1.078125 C-28.7521875 -1.738125 -27.7621875 -2.398125 -26.7421875 -3.078125 C-17.49918212 -5.51216945 -7.99014745 -5.53772595 0 0 Z " fill="#242021" transform="translate(419.7421875,438.078125)"/>
<path d="M0 0 C5.75717169 3.83085905 12.47812037 9.45290494 15.0625 16 C15.01386771 20.23100901 13.95593892 22.44132169 11.12109375 25.4296875 C9.92661221 26.59117231 8.71910899 27.73939162 7.5 28.875 C6.88447266 29.46796875 6.26894531 30.0609375 5.63476562 30.671875 C4.12177745 32.12622022 2.593596 33.5647306 1.0625 35 C2.17109375 35.03738281 3.2796875 35.07476562 4.421875 35.11328125 C5.88544974 35.17895448 7.34898991 35.24540135 8.8125 35.3125 C9.90691406 35.34633789 9.90691406 35.34633789 11.0234375 35.38085938 C14.21547107 35.54046105 16.6977476 35.80844764 19.546875 37.3046875 C21.72909476 39.74562403 21.59902478 42.04044172 21.44921875 45.20703125 C19.67405307 58.02767224 14.70198969 71.35288243 4.1484375 79.47265625 C-2.94245144 84.1679746 -10.457012 86.22777214 -18.9375 85 C-30.93813332 80.82664543 -37.4374313 73.07017738 -42.94140625 61.9765625 C-47.88607954 51.03617426 -48.19883221 33.91310185 -44.3125 22.625 C-43.19921875 20.2109375 -43.19921875 20.2109375 -41.9375 18 C-41.49019531 17.20851563 -41.04289062 16.41703125 -40.58203125 15.6015625 C-31.94238308 1.65767993 -16.6681704 -8.52185488 0 0 Z " fill="#252021" transform="translate(536.9375,436)"/>
<path d="M0 0 C4.14968939 3.23878196 7.5682041 6.65619542 10.97265625 10.6640625 C13.28440821 13.32769963 15.70418883 15.87263476 18.125 18.4375 C24.99698615 25.83690451 31.00618196 33.88511675 37 42 C37.70286133 42.94891113 37.70286133 42.94891113 38.41992188 43.91699219 C41.35322144 47.89546598 44.2125685 51.91802662 47 56 C47.61077393 56.89090332 47.61077393 56.89090332 48.23388672 57.79980469 C49.42733095 59.56180367 50.59306258 61.33886876 51.75 63.125 C52.42546875 64.15882813 53.1009375 65.19265625 53.796875 66.2578125 C54.39242187 67.61519531 54.39242187 67.61519531 55 69 C53.85252302 71.87929693 52.15637739 74.3981947 50.4609375 76.984375 C43.93551706 87.04967377 38.07980095 97.13658643 33 108 C32.31901235 109.44270925 31.63802274 110.88541757 30.95703125 112.328125 C29.28803305 115.87786304 27.63856557 119.43611989 26 123 C25.34 123 24.68 123 24 123 C23.78496826 122.4738208 23.56993652 121.9476416 23.34838867 121.40551758 C13.64074446 97.81525438 2.3283212 74.07438343 -14.19360352 54.38598633 C-16.73141437 51.03390828 -16.44121925 49.15340046 -16 45 C-15.32670364 41.55521089 -14.44484233 38.19201347 -13.5 34.8125 C-13.23735352 33.86012451 -12.97470703 32.90774902 -12.70410156 31.92651367 C-9.64935266 21.23047814 -6.21775894 9.3266384 0 0 Z " fill="#F9D005" transform="translate(795,274)"/>
<path d="M0 0 C3.15754217 1.59091548 5.27723823 4.10777715 7.59375 6.7109375 C8.1182373 7.29037109 8.64272461 7.86980469 9.18310547 8.46679688 C14.31716917 14.21003906 19.06994064 20.22748796 23.74169922 26.34863281 C24.9349654 27.89838783 26.15581192 29.42680096 27.37890625 30.953125 C38.12566928 44.48076995 47.59917324 59.12209829 56.53125 73.8984375 C56.89871338 74.50413574 57.26617676 75.10983398 57.64477539 75.73388672 C60.03125 79.76741516 60.03125 79.76741516 60.03125 82.0234375 C59.19722656 82.03761719 58.36320313 82.05179687 57.50390625 82.06640625 C49.71002997 82.3967309 44.41896824 83.54583307 38.03125 88.0234375 C37.33644531 88.49910156 36.64164063 88.97476563 35.92578125 89.46484375 C34.27373295 90.62226681 32.64909079 91.81866245 31.03125 93.0234375 C30.66515625 92.49878906 30.2990625 91.97414063 29.921875 91.43359375 C28.72877116 89.72631897 27.53311752 88.0208252 26.3359375 86.31640625 C24.66226789 83.93146399 23.00480884 81.53585648 21.3515625 79.13671875 C14.35575739 69.03797371 6.92118841 59.43688372 -0.96875 50.0234375 C-1.47937988 49.40839355 -1.99000977 48.79334961 -2.51611328 48.15966797 C-9.17674704 40.14256784 -9.17674704 40.14256784 -16.421875 32.66015625 C-16.98382568 32.12100586 -17.54577637 31.58185547 -18.12475586 31.02636719 C-19.20250743 30.00786416 -20.29398403 29.00362791 -21.40063477 28.01660156 C-24.93334012 24.7026633 -24.93334012 24.7026633 -25.09765625 21.55078125 C-23.61850527 18.23932559 -21.55395871 15.76028857 -19.09375 13.1484375 C-18.60704834 12.62612549 -18.12034668 12.10381348 -17.61889648 11.56567383 C-6.54002574 0.07785745 -6.54002574 0.07785745 0 0 Z " fill="#FCA3BC" transform="translate(825.96875,242.9765625)"/>
<path d="M0 0 C13.1510432 1.39837855 23.1653781 6.66016817 33.08203125 15.41015625 C34.89453125 17.66015625 34.89453125 17.66015625 36.08203125 19.41015625 C34.77119864 22.27526181 33.34090491 24.41361386 31.20703125 26.72265625 C20.21489991 39.06309476 10.62288131 52.20420776 2.08203125 66.34765625 C1.42203125 67.35828125 0.76203125 68.36890625 0.08203125 69.41015625 C-0.57796875 69.41015625 -1.23796875 69.41015625 -1.91796875 69.41015625 C-2.18609375 68.83007812 -2.45421875 68.25 -2.73046875 67.65234375 C-6.38190123 60.37350138 -10.6517817 56.21508154 -18.16796875 53.03515625 C-28.45174415 51.32119368 -35.74740344 52.35551395 -44.91796875 57.41015625 C-43.64145994 53.94599771 -42.16274113 51.06042906 -40.046875 48.0390625 C-39.47815674 47.22445557 -38.90943848 46.40984863 -38.32348633 45.57055664 C-37.71529053 44.71324951 -37.10709473 43.85594238 -36.48046875 42.97265625 C-35.85229248 42.08247803 -35.22411621 41.1922998 -34.5769043 40.27514648 C-26.6768066 29.15608217 -18.19994698 18.6035319 -9.328125 8.25 C-6.89186275 5.48599655 -6.89186275 5.48599655 -4.98828125 2.54296875 C-2.91796875 0.41015625 -2.91796875 0.41015625 0 0 Z " fill="#3AADD4" transform="translate(242.91796875,333.58984375)"/>
<path d="M0 0 C2.56630083 0.54195173 3.82007286 0.83868602 5.8125 2.625 C7.54988199 6.09976397 6.89949089 8.27353774 6 12 C0.15372828 27.81932349 -18.26841715 36.94881498 -32.59912109 43.90039062 C-39.48515636 47.05421438 -46.60353487 49.64333344 -53.73242188 52.18798828 C-55.59426936 52.85470929 -57.44697656 53.54690228 -59.296875 54.24609375 C-67.8462808 57.34947976 -76.74574819 58.96059108 -85.67285156 60.57714844 C-87.63642544 60.93393714 -89.59607946 61.31220016 -91.5546875 61.6953125 C-112.03013808 65.24973057 -138.07012614 65.48456305 -156.375 54.5859375 C-161.36475885 51.05152498 -166.23591993 46.52816013 -169 41 C-169.16796875 38.94140625 -169.16796875 38.94140625 -169.1875 36.5625 C-169.20167969 35.78003906 -169.21585937 34.99757813 -169.23046875 34.19140625 C-169 32 -169 32 -167 29 C-163.98356898 30.34720776 -162.00716137 31.85717352 -159.6875 34.1875 C-155.92075051 37.57191026 -151.99324098 39.70463657 -147.4375 41.8125 C-146.50006958 42.24695435 -146.50006958 42.24695435 -145.54370117 42.69018555 C-139.03558807 45.59188658 -133.11502295 47.24892685 -125.9765625 47.30078125 C-125.32212662 47.30647125 -124.66769073 47.31216125 -123.99342346 47.31802368 C-121.87036482 47.33013194 -119.74805654 47.32391092 -117.625 47.3125 C-116.89213776 47.31001251 -116.15927551 47.30752502 -115.40420532 47.30496216 C-86.74409638 47.15508452 -56.72232241 43.41903103 -31 30 C-29.93136719 29.45730469 -28.86273438 28.91460938 -27.76171875 28.35546875 C-15.04097501 21.45361668 -6.84411212 12.51158605 0 0 Z " fill="#FAEEF3" transform="translate(459,921)"/>
<path d="M0 0 C1.54296875 2.08984375 1.54296875 2.08984375 3.1875 4.9375 C16.56422112 26.73763755 39.60348222 35.83806562 63.50317383 41.68554688 C93.66915349 48.61761955 127.47571337 53.36575836 155.47265625 37.66015625 C159.16306497 35.23600833 162.11705793 32.32571475 165 29 C166.98 29.99 166.98 29.99 169 31 C169.76042119 37.74521757 169.16059648 42.40934401 165.01953125 47.8984375 C152.93698023 60.47176912 134.85397116 62.88830379 118.28417969 63.38720703 C78.7295102 63.99293569 33.37718606 51.42773172 3 25 C-3.40166507 18.75101519 -6.16408976 14.06487716 -6.36328125 5.0859375 C-5.6731559 1.12328228 -3.89654479 0 0 0 Z " fill="#FBEFF4" transform="translate(547,921)"/>
<path d="M0 0 C2.875 0.4375 2.875 0.4375 4.875 2.4375 C4.875 6.70708306 3.43435998 9.29483952 1.0625 12.6875 C-6.02845091 22.97365048 -7.68695101 32.65022897 -5.69921875 45.10546875 C-5.08332052 47.68659951 -4.31294926 50.06160148 -3.125 52.4375 C-2.9375 55.4375 -2.9375 55.4375 -3.125 58.4375 C-5.80258963 61.11508963 -7.84769394 61.05276862 -11.5625 61.6875 C-21.72311761 63.76959377 -30.73219212 68.03597941 -37.125 76.4375 C-44.4660481 88.00672547 -46.19571453 100.30874779 -43.44140625 113.78125 C-39.66811226 124.92890694 -31.50123657 133.92512432 -21.125 139.4375 C-21.61766386 144.16707304 -22.61239093 148.13904474 -24.40625 152.54296875 C-28.30442839 162.81805853 -26.15302182 173.53697498 -22.125 183.4375 C-20.99883235 185.37425484 -20.99883235 185.37425484 -19.8125 186.9375 C-18.125 189.4375 -18.125 189.4375 -18.25 192.1875 C-19.125 194.4375 -19.125 194.4375 -21.125 196.4375 C-23.5 196.375 -23.5 196.375 -26.125 195.4375 C-29.27586237 192.00299836 -31.09925728 188.62533184 -32.8125 184.3125 C-33.22886719 183.27867187 -33.64523437 182.24484375 -34.07421875 181.1796875 C-36.23211521 175.5482997 -36.37844413 170.85539156 -36.4375 164.875 C-36.46650391 163.92302734 -36.49550781 162.97105469 -36.52539062 161.99023438 C-36.58713335 155.01330639 -35.15940864 149.70781092 -32.125 143.4375 C-32.90818604 143.14037109 -33.69137207 142.84324219 -34.49829102 142.53710938 C-43.348983 138.83197723 -48.70168734 128.94639711 -52.3828125 120.578125 C-57.09543012 107.59371002 -56.93820762 93.22179583 -51.68359375 80.46484375 C-49.35373586 75.93943055 -46.57290643 72.16604998 -43.125 68.4375 C-42.34125 67.57125 -41.5575 66.705 -40.75 65.8125 C-33.33247427 59.10140529 -25.60873021 52.4375 -15.125 52.4375 C-15.60839844 50.71273437 -15.60839844 50.71273437 -16.1015625 48.953125 C-19.49510948 35.29484918 -17.12630717 22.08347431 -10.125 10 C-9.13937233 8.46981304 -8.14099802 6.94769272 -7.125 5.4375 C-6.465 4.40625 -5.805 3.375 -5.125 2.3125 C-3.125 0.4375 -3.125 0.4375 0 0 Z " fill="#282224" transform="translate(489.125,344.5625)"/>
<path d="M0 0 C2.875 0.75 2.875 0.75 3.875 1.75 C3.98208228 3.74886914 4.06016299 5.74931497 4.125 7.75 C4.65127502 14.91362417 6.14680591 20.38532597 11.59765625 25.3046875 C16.82163422 28.9303642 22.73950966 30.36274759 28.875 31.75 C29.65151396 35.43844129 29.8585904 38.75960992 29.6875 42.5 C29.62712225 50.53024061 32.75103283 57.49413939 38.26953125 63.28515625 C44.28776761 68.77624782 49.80551599 69.40001709 57.765625 70.16015625 C61.03490214 70.78033319 62.03069329 71.0558657 63.875 73.75 C64.8671875 76.0546875 64.8671875 76.0546875 65.75 78.625 C68.02829116 84.53136235 70.53077112 87.66160802 76.375 90.375 C77.53 90.82875 78.685 91.2825 79.875 91.75 C81.56035024 92.71817992 83.23521682 93.70650161 84.875 94.75 C84.545 97.06 84.215 99.37 83.875 101.75 C75.43942025 102.41949046 70.34898509 100.47832091 63.859375 95.0703125 C60.26816726 91.67526316 57.68062659 88.42338646 55.875 83.75 C55.875 82.76 55.875 81.77 55.875 80.75 C55.26914062 80.73582031 54.66328125 80.72164062 54.0390625 80.70703125 C44.94520878 80.18938112 37.27895277 76.78211083 30.5390625 70.6171875 C24.02568166 63.30874609 19.52965166 55.29067531 19.75 45.375 C19.76804687 44.31539062 19.78609375 43.25578125 19.8046875 42.1640625 C19.82789063 41.36742187 19.85109375 40.57078125 19.875 39.75 C18.9984375 39.646875 18.121875 39.54375 17.21875 39.4375 C9.98298997 37.94977364 3.60206047 33.39856117 -0.625 27.375 C-5.09558344 19.72590926 -7.61963637 11.68851163 -6.125 2.75 C-4.05015616 -0.11816648 -3.65667254 -0.2925338 0 0 Z " fill="#282224" transform="translate(312.125,535.25)"/>
<path d="M0 0 C1 1 1 1 1.625 3.6875 C1 7 1 7 -0.76171875 8.51953125 C-3.14985892 10.05621227 -5.57146882 11.52816292 -8 13 C-15.01494543 17.81499213 -18.33671187 24.01013561 -21 32 C-21.19346496 35.21366789 -21.3449201 38.42053805 -21.4296875 41.63867188 C-21.5234375 43.62890625 -21.5234375 43.62890625 -22 47 C-25.3605254 49.24035026 -27.10270484 49.35354852 -31.0625 49.75 C-39.54007997 50.97726659 -45.97617336 54.10631214 -51.4375 60.8125 C-57.80381977 70.37099711 -58.03709413 80.53930766 -56.375 91.6875 C-56.25125 92.780625 -56.1275 93.87375 -56 95 C-58 97 -58 97 -61.125 97.125 C-62.07375 97.08375 -63.0225 97.0425 -64 97 C-69.31200206 88.46285383 -69.39670745 78.41857693 -67.3046875 68.8046875 C-65.28128332 62.70046816 -62.24028145 57.80089558 -58 53 C-57.46375 52.38253906 -56.9275 51.76507813 -56.375 51.12890625 C-49.48013683 43.70735214 -41.94872369 40.39157513 -32 39 C-31.96132813 37.98292969 -31.96132813 37.98292969 -31.921875 36.9453125 C-31.20311256 25.15107424 -27.33189604 16.47359495 -19 8 C-12.6337942 2.88097487 -8.28525647 -0.30128205 0 0 Z " fill="#282223" transform="translate(368,417)"/>
<path d="M0 0 C3.29714793 0.32971479 4.6226839 0.6226839 7 3 C6.67918272 17.75759474 -3.80495721 32.59445532 -13.95458984 42.54638672 C-26.81314996 54.56754274 -44.11419376 59.37042217 -61.375 59.3125 C-62.85033203 59.33666992 -62.85033203 59.33666992 -64.35546875 59.36132812 C-65.29777344 59.36197266 -66.24007813 59.36261719 -67.2109375 59.36328125 C-68.05962402 59.36626221 -68.90831055 59.36924316 -69.78271484 59.37231445 C-72.4853749 58.91849849 -73.4027337 58.19976696 -75 56 C-74.75546876 52.65807308 -74.39456443 51.39456443 -72 49 C-69.76025391 48.74462891 -69.76025391 48.74462891 -66.9765625 48.7265625 C-65.96078125 48.70875732 -64.945 48.69095215 -63.8984375 48.67260742 C-62.27808594 48.64904175 -62.27808594 48.64904175 -60.625 48.625 C-51.66796791 48.37479988 -44.19110381 47.85463709 -36 44 C-35.28457031 43.7009375 -34.56914062 43.401875 -33.83203125 43.09375 C-18.65265238 36.28211384 -9.93103238 22.59709081 -4.03515625 7.53515625 C-3.77605469 6.82230469 -3.51695312 6.10945312 -3.25 5.375 C-2 2 -2 2 0 0 Z " fill="#292224" transform="translate(522,535)"/>
<path d="M0 0 C2.4375 0.8125 2.4375 0.8125 4.4375 2.8125 C5.00202837 4.77423607 5.49313537 6.75760426 5.9375 8.75 C6.75840174 12.42175071 7.33172543 14.65383814 9.4375 17.8125 C9.19704488 22.30600512 7.13027928 24.94650401 4.4375 28.4375 C-0.9750129 35.49309717 -1.25232206 41.04476168 -0.5625 49.8125 C1.10336514 57.50518933 4.88729666 62.52139964 11.4375 66.8125 C15.4577947 68.92393385 19.31736766 69.88004861 23.8125 70.375 C27.4375 70.8125 27.4375 70.8125 29.4375 72.8125 C29.6875 75.3125 29.6875 75.3125 29.4375 77.8125 C26.94251246 80.30748754 26.02329618 80.16473401 22.5625 80.25 C13.16732413 80.05298452 4.84802893 76.17704036 -1.8828125 69.68359375 C-9.76691433 60.90107101 -12.20829808 50.54917992 -11.91796875 38.89453125 C-11.22850609 32.91666265 -8.83459571 28.4971673 -5.25 23.75 C-2.99434685 19.82349267 -3.72327116 17.03835144 -4.5625 12.8125 C-4.83818611 11.04548334 -5.08781671 9.27422324 -5.3125 7.5 C-5.43109375 6.67886719 -5.5496875 5.85773437 -5.671875 5.01171875 C-5.5625 2.8125 -5.5625 2.8125 -4.23828125 1.0078125 C-2.5625 -0.1875 -2.5625 -0.1875 0 0 Z " fill="#282224" transform="translate(480.5625,613.1875)"/>
<path d="M0 0 C12.11356659 1.18835622 21.79475497 5.8727764 29.65625 15.2421875 C36.92877698 25.25025216 39.34468446 34.79929807 37.96875 47.1171875 C35.97753337 57.35773016 30.6007506 66.7869664 22.34375 73.3046875 C18.80599404 75.20459348 16.91346877 75.68071875 12.96875 75.1171875 C11.96875 74.1171875 11.96875 74.1171875 11.40625 71.4921875 C12.17046673 66.90688714 14.34559886 65.79070841 17.86328125 62.9765625 C23.07401524 58.37487534 26.54141537 51.63858917 27.375 44.76953125 C27.62649621 34.80399375 25.95729976 26.99654972 19.328125 19.18359375 C13.26903115 13.50673245 6.07205135 11.10942848 -2.03125 10.1171875 C-4.03125 8.1171875 -4.03125 8.1171875 -4.28125 5.1171875 C-4.00074799 1.7511634 -3.60232353 0.20782636 0 0 Z " fill="#282224" transform="translate(665.03125,457.8828125)"/>
<path d="M0 0 C9.13885508 0.2824737 16.87558333 4.88060987 23.1015625 11.27734375 C24.93040444 13.87054783 25.75273784 16.40185496 26.625 19.4375 C27.64078125 19.36789062 28.6565625 19.29828125 29.703125 19.2265625 C40.36980075 18.71670554 48.23647611 20.133375 56.7421875 27.1953125 C62.31810717 32.91481809 66.7879579 41.40100807 67.0625 49.5 C66.625 52.4375 66.625 52.4375 64.625 55.4375 C61.625 55.75 61.625 55.75 58.625 55.4375 C56.1366838 52.9491838 56.27729508 51.75116513 55.875 48.3125 C54.85697062 42.42026934 53.07191765 38.49015485 48.625 34.4375 C42.65162235 30.27946123 36.89896956 28.3401339 29.625 29.4375 C28.635 29.9325 28.635 29.9325 27.625 30.4375 C24.6875 30.8125 24.6875 30.8125 21.625 30.4375 C19.83097666 28.21291106 18.81995063 25.88669875 17.6875 23.27734375 C14.44035609 16.5237354 10.61755947 13.94846454 3.625 11.4375 C0.96657648 10.6512669 -1.66343685 10.02911378 -4.375 9.4375 C-5.375 8.4375 -5.375 8.4375 -5.5625 5.5 C-5.29128684 1.07018499 -4.34642743 0.56342578 0 0 Z " fill="#282224" transform="translate(569.375,364.5625)"/>
<path d="M0 0 C1.875 1.1875 1.875 1.1875 3 3 C3.3125 5.5625 3.3125 5.5625 3 8 C0.68194819 10.31805181 0.11871009 10.21164511 -3 10.5625 C-10.48520768 12.12945169 -15.72714879 17.58594829 -19.859375 23.79296875 C-21.36122324 26.48811719 -22.72099647 29.19294604 -24 32 C-24.33902344 32.74378906 -24.67804687 33.48757813 -25.02734375 34.25390625 C-25.71520718 35.82299564 -26.36371795 37.40929488 -27 39 C-29.875 39.125 -29.875 39.125 -33 39 C-33.66 38.34 -34.32 37.68 -35 37 C-35 26.16279164 -28.68573682 16.82007214 -21.4453125 9.19921875 C-15.32933829 3.69874993 -8.44091184 -0.70340932 0 0 Z " fill="#292526" transform="translate(859,453)"/>
<path d="M0 0 C7.7799937 0.09895064 14.77688015 4.34547938 20.40625 9.5234375 C26.01381305 15.79226978 31.14479117 24.11193107 33.0625 32.375 C32.48545082 36.95204918 32.48545082 36.95204918 31.0625 38.375 C28.1875 38.75 28.1875 38.75 25.0625 38.375 C22.44260486 34.7085149 20.75470468 30.58087904 18.875 26.5 C15.26195084 18.99017998 10.72768205 13.80851966 3.0625 10.375 C1.86625 10.045 0.67 9.715 -0.5625 9.375 C-3.9375 8.375 -3.9375 8.375 -5.9375 6.375 C-5.22069624 0.49720917 -5.22069624 0.49720917 0 0 Z " fill="#292526" transform="translate(142.9375,456.625)"/>
<path d="M0 0 C0.495 0.99 0.495 0.99 1 2 C-5.87873676 15.85367963 -17.47653824 27.857874 -31.93359375 33.46875 C-34 34 -34 34 -36 33 C-26.695873 23.49604869 -17.52163766 14.16147578 -7 6 C-4.64576579 4.02294063 -2.32325622 2.01348873 0 0 Z " fill="#3AA9CF" transform="translate(288,289)"/>
</svg>
