<?xml version="1.0" encoding="UTF-8"?>
<svg version="1.1" xmlns="http://www.w3.org/2000/svg" width="500" height="500">
<path d="M0 0 C0.95261719 0.721875 1.90523438 1.44375 2.88671875 2.1875 C3.58410156 2.785625 4.28148437 3.38375 5 4 C5 4.66 5 5.32 5 6 C5.52980469 6.20367187 6.05960937 6.40734375 6.60546875 6.6171875 C10.04006822 8.60062667 12.55333827 11.30106175 15.3125 14.125 C15.89572021 14.71684082 16.47894043 15.30868164 17.07983398 15.91845703 C21.22286606 20.14769379 25.22988105 24.43281573 29 29 C29.41008301 29.48033691 29.82016602 29.96067383 30.24267578 30.45556641 C62.45460028 68.24983218 83.39290093 119.4023878 87 169 C87.10054688 170.34771484 87.10054688 170.34771484 87.203125 171.72265625 C91.57634585 234.88205735 71.67429029 300.645235 30.24560547 349.04980469 C26.85267931 352.87738145 23.33777764 356.57440056 19.75 360.21923828 C17.98443884 362.0158347 16.24158404 363.83252449 14.5 365.65234375 C7.38110009 373.01655173 -0.05128569 379.62689779 -8.28076172 385.72509766 C-9.94971322 386.9627098 -11.60177553 388.22053819 -13.25390625 389.48046875 C-49.51519838 416.68724276 -93.4101061 430.70699063 -138 436 C-139.10730469 436.13277344 -140.21460938 436.26554687 -141.35546875 436.40234375 C-203.46143678 442.39142653 -267.17491777 421.38633842 -315.43261719 382.31054688 C-319.1775189 379.17929572 -322.7434346 375.8525364 -326.30078125 372.51171875 C-328.48804586 370.47639148 -330.70817803 368.53878948 -333 366.625 C-348.2342808 353.30678338 -360.66103645 336.29824749 -371 319 C-371.54817383 318.08299316 -371.54817383 318.08299316 -372.10742188 317.14746094 C-382.11858033 300.22218352 -389.98738357 282.71663087 -396 264 C-396.23702637 263.27603027 -396.47405273 262.55206055 -396.71826172 261.80615234 C-399.42331493 253.4747429 -401.51678953 245.09908306 -403.1875 236.5 C-403.3424292 235.7066626 -403.4973584 234.9133252 -403.65698242 234.09594727 C-406.39834913 219.18333024 -407.40863539 204.45145119 -407.375 189.3125 C-407.37478851 188.42591705 -407.37457703 187.53933411 -407.37435913 186.62588501 C-407.31921724 163.27995672 -404.70266065 140.43549926 -398 118 C-397.78649902 117.27022949 -397.57299805 116.54045898 -397.35302734 115.78857422 C-386.22059068 78.35066362 -365.54399196 41.91117886 -337 15 C-336.175 14.175 -335.35 13.35 -334.5 12.5 C-333.675 11.675 -332.85 10.85 -332 10 C-331.10474609 9.05253906 -331.10474609 9.05253906 -330.19140625 8.0859375 C-264.25772449 -60.38830814 -150.79375376 -76.25076606 0 0 Z M-228.0625 -23.8125 C-228.83647125 -23.71462189 -229.6104425 -23.61674377 -230.40786743 -23.51589966 C-244.33752505 -21.71650194 -257.96773364 -18.72386045 -270.4375 -12 C-271.10088379 -11.65533691 -271.76426758 -11.31067383 -272.44775391 -10.95556641 C-274.30650495 -9.98453629 -276.15469415 -8.9962844 -278 -8 C-278.87527344 -7.53335938 -279.75054687 -7.06671875 -280.65234375 -6.5859375 C-282.78832401 -5.42222242 -284.89642932 -4.22117399 -287 -3 C-287.85335937 -2.51789062 -288.70671875 -2.03578125 -289.5859375 -1.5390625 C-294.39881343 1.24139661 -298.14844075 3.95586279 -302 8 C-303.56922621 9.28821229 -305.1544177 10.55708018 -306.75 11.8125 C-314.401063 17.88567316 -321.17635709 23.84721677 -327.15234375 31.6171875 C-329.18219156 34.23496164 -331.34102238 36.695645 -333.578125 39.13671875 C-337.34016276 44.06664186 -339.93012063 49.76184244 -342.5 55.375 C-342.80405762 56.03491943 -343.10811523 56.69483887 -343.42138672 57.37475586 C-344.2832681 59.24876115 -345.14174542 61.12433094 -346 63 C-346.38414062 63.81855469 -346.76828125 64.63710937 -347.1640625 65.48046875 C-360.48923281 94.35167108 -360.40957824 127.47297752 -350.00390625 157.34423828 C-345.78719485 168.49924475 -340.50753782 181.59021442 -333 191 C-332.34 191 -331.68 191 -331 191 C-330.7525 191.721875 -330.505 192.44375 -330.25 193.1875 C-328.88745796 196.25321959 -327.14629658 198.43829118 -325 201 C-324.67 201.66 -324.34 202.32 -324 203 C-323.34 203 -322.68 203 -322 203 C-321.77183594 203.55171875 -321.54367187 204.1034375 -321.30859375 204.671875 C-308.49762805 227.46392143 -274.54344791 239.86714297 -250.88671875 246.73828125 C-241.81494542 249.18705269 -232.87990144 250.35870563 -223.5 250.6875 C-222.45320068 250.72439941 -221.40640137 250.76129883 -220.32788086 250.79931641 C-204.80359621 251.26025824 -190.63658373 250.08681045 -175.44946289 246.64013672 C-165.79679272 244.49954458 -165.79679272 244.49954458 -161 246 C-157.25973373 248.8051997 -156.26036311 251.58572347 -155 256 C-154.65283203 258.89892578 -154.65283203 258.89892578 -154.5078125 261.9453125 C-154.4135498 263.6634314 -154.4135498 263.6634314 -154.31738281 265.41625977 C-154.25389648 266.64014404 -154.19041016 267.86402832 -154.125 269.125 C-152.09064857 302.03789998 -148.15123916 340.07845865 -124 365 C-123.40574219 365.64710938 -122.81148437 366.29421875 -122.19921875 366.9609375 C-110.04033354 379.76270629 -95.87329203 385.25677822 -79 389 C-78.34845947 389.17716553 -77.69691895 389.35433105 -77.02563477 389.53686523 C-68.82448538 391.41195025 -59.68070921 389.36517297 -51.5 388.25 C-50.23285156 388.09273438 -48.96570313 387.93546875 -47.66015625 387.7734375 C-40.45470926 386.79871522 -34.42625443 385.40439473 -28 382 C-26.40091797 381.2575 -26.40091797 381.2575 -24.76953125 380.5 C-12.74661457 374.40118889 -0.99694548 365.07536284 7 354.125 C7.45375 353.50882812 7.9075 352.89265625 8.375 352.2578125 C8.91125 351.51273437 9.4475 350.76765625 10 350 C10.38865234 349.4858252 10.77730469 348.97165039 11.17773438 348.44189453 C14.20699267 344.3620198 16.5081743 340.29420728 18.5 335.625 C18.79479248 334.94236084 19.08958496 334.25972168 19.39331055 333.55639648 C25.07436343 320.00357806 28.79447141 305.56375222 30.125 290.9375 C30.20991699 290.03298096 30.29483398 289.12846191 30.38232422 288.1965332 C31.0893715 280.11243623 31.20649021 272.1104767 31 264 C29.5459375 264.24169922 29.5459375 264.24169922 28.0625 264.48828125 C6.44712322 267.5475718 -18.35186959 264.88271014 -39 258 C-39.03963867 258.58789307 -39.07927734 259.17578613 -39.12011719 259.78149414 C-41.544352 294.11924007 -41.544352 294.11924007 -53 306 C-58.71350668 309.75795594 -67.20879768 309.5637244 -73.75 308.4375 C-79.7811598 306.74703026 -84.16363497 303.74270003 -87.66503906 298.51318359 C-91.98975462 290.45822926 -92.83466771 284.05452735 -92.5625 275 C-92.54080513 273.57147284 -92.5206079 272.14292235 -92.50170898 270.71435547 C-92.16273531 251.54845679 -90.94790344 232.38805665 -89.93841553 213.24899292 C-88.98605813 195.16716437 -88.22308376 177.10603555 -88 159 C-87.98904297 158.12766724 -87.97808594 157.25533447 -87.96679688 156.35656738 C-87.66783037 131.17193661 -87.70553084 106.1010677 -90 81 C-90.10183594 79.87964355 -90.20367187 78.75928711 -90.30859375 77.60498047 C-92.97174867 49.85967358 -101.17520889 18.41721903 -123.52783203 -0.27783203 C-136.30043546 -10.36066196 -150.32193175 -17.61976267 -166 -22 C-166.66273926 -22.19609863 -167.32547852 -22.39219727 -168.00830078 -22.59423828 C-187.8690398 -28.35691534 -207.84387381 -26.44938086 -228.0625 -23.8125 Z " fill="#FDFEFE" transform="translate(410,61)"/>
<path d="M0 0 C7.21436815 3.79149275 11.79839299 8.56440664 14.7578125 16.20703125 C16.31645836 21.94767761 16.11493115 27.76908358 15.83911133 33.66601562 C15.74332312 36.78272909 15.82618133 38.91768405 17.28515625 41.70703125 C19.05383638 43.6014491 19.05383638 43.6014491 22.5 43.625 C26.10936483 43.51140863 26.10936483 43.51140863 29 41.25 C38.45917059 38.77410971 48.43761389 39.47165648 56.93359375 44.36328125 C62.67215788 48.54687962 65.09981607 54.56979782 67 61.25 C68.2302289 69.29921192 66.48323265 77.2495109 61.6875 83.875 C58.18463417 87.73530111 53.49761881 89.70248372 48.76245117 91.67822266 C45.90602949 92.93586355 44.2608175 93.73955518 42.81640625 96.56640625 C43.07671435 100.37133525 44.98941626 102.65230355 47.25 105.5625 C54.63543815 115.76907057 56.67180108 124.6292976 55 137.25 C53.84761643 141.02962841 52.26949541 144.03019247 50 147.25 C49.60425781 147.84167969 49.20851562 148.43335938 48.80078125 149.04296875 C44.8935385 154.30022228 39.98569521 157.1609225 33.625 158.125 C24.04445822 158.74100776 17.20324341 155.49917144 10 149.25 C5.73717568 144.59489123 2.88571258 139.71010118 0.0390625 134.109375 C-1.59521672 131.07615278 -2.64788919 129.43205729 -5.75 127.828125 C-6.4925 127.63734375 -7.235 127.4465625 -8 127.25 C-12.19016197 130.19443814 -13.83291913 132.66579046 -16 137.25 C-20.75860072 145.69555945 -26.21480009 154.36410428 -36 157.25 C-39.14983165 157.57983111 -42.27236185 157.62012681 -45.4375 157.625 C-46.27087891 157.64949219 -47.10425781 157.67398438 -47.96289062 157.69921875 C-54.4772102 157.73011671 -57.85454582 156.00484222 -62.79296875 151.6796875 C-68.5718844 145.23708686 -70.66803276 137.54661816 -70.34375 128.953125 C-69.19132007 119.8908351 -66.34323927 113.08064168 -60.42578125 106.1875 C-58.72066111 104.17808827 -58.72066111 104.17808827 -58.4375 100.8125 C-58.79188877 98.09874209 -58.79188877 98.09874209 -61 96.25 C-63.10644509 95.74445646 -63.10644509 95.74445646 -65.54296875 95.50390625 C-66.45240234 95.38853516 -67.36183594 95.27316406 -68.29882812 95.15429688 C-70.20489263 94.92876524 -72.11114009 94.70477386 -74.01757812 94.48242188 C-81.11121562 93.57886917 -87.18425356 92.24789514 -92.75 87.4375 C-93.30171875 86.97730469 -93.8534375 86.51710938 -94.421875 86.04296875 C-98.59774031 81.29860693 -99.53143438 76.53243499 -99.4375 70.375 C-99.42775146 69.66537109 -99.41800293 68.95574219 -99.40795898 68.22460938 C-99.12113403 59.7695932 -96.78177714 55.70883225 -90.75 50 C-80.42420335 41.4092067 -69.28279795 39.34626533 -56 40.25 C-55.01 40.745 -55.01 40.745 -54 41.25 C-49.94944183 41.66591713 -49.94944183 41.66591713 -46 41.25 C-42.44307139 38.02014528 -42.46111365 34.14591322 -42.125 29.625 C-41.04392103 18.99898961 -37.11277725 10.46320852 -29 3.25 C-20.34398234 -2.24967973 -9.66855902 -4.15064403 0 0 Z M-23.03515625 63.890625 C-27.74121231 68.7996116 -30.0268288 73.51024565 -29.98828125 80.3203125 C-29.47727929 86.29335761 -27.4997642 90.46649662 -23.6875 95 C-18.95522657 98.96190334 -14.19510677 99.7302208 -8.16796875 99.55859375 C-2.46581315 98.74693557 1.28151366 94.29695963 4.7421875 90.0390625 C8.00504437 85.3981046 8.46968762 80.79231393 8 75.25 C6.74905136 69.86270295 5.44472531 65.79510681 1 62.25 C-6.78080882 59.8543025 -16.31706582 58.47488991 -23.03515625 63.890625 Z " fill="#FAFAFA" transform="translate(201,96.75)"/>
<path d="M0 0 C7.21436815 3.79149275 11.79839299 8.56440664 14.7578125 16.20703125 C16.31645836 21.94767761 16.11493115 27.76908358 15.83911133 33.66601562 C15.74332312 36.78272909 15.82618133 38.91768405 17.28515625 41.70703125 C19.05383638 43.6014491 19.05383638 43.6014491 22.5 43.625 C26.10936483 43.51140863 26.10936483 43.51140863 29 41.25 C38.45917059 38.77410971 48.43761389 39.47165648 56.93359375 44.36328125 C62.67215788 48.54687962 65.09981607 54.56979782 67 61.25 C68.2302289 69.29921192 66.48323265 77.2495109 61.6875 83.875 C58.18463417 87.73530111 53.49761881 89.70248372 48.76245117 91.67822266 C45.90602949 92.93586355 44.2608175 93.73955518 42.81640625 96.56640625 C43.07671435 100.37133525 44.98941626 102.65230355 47.25 105.5625 C54.61650857 115.74291016 56.7169648 124.65173222 55 137.25 C53.27476396 142.63723132 50.41160839 146.79790108 47 151.25 C46.34 150.92 45.68 150.59 45 150.25 C45.3125 148.375 45.3125 148.375 46 146.25 C46.99 145.59 47.98 144.93 49 144.25 C53.51021939 135.89774186 53.48642977 124.23423884 50.875 115.1875 C48.79485066 110.03149002 45.32487202 105.71834022 40.625 102.75 C39 101.25 39 101.25 38.3125 97.9375 C39.13570282 93.5221394 40.30315767 92.14785087 43.77734375 89.47265625 C47.62158841 87.35798388 51.68240246 86.7538645 56 86.25 C56 85.26 56 84.27 56 83.25 C56.61875 83.188125 57.2375 83.12625 57.875 83.0625 C60.20658176 82.43508214 60.20658176 82.43508214 61.1875 80.0625 C62.03318548 77.1351272 62.57913025 74.26623321 63 71.25 C63.66 71.25 64.32 71.25 65 71.25 C64.67 66.63 64.34 62.01 64 57.25 C63.34 57.25 62.68 57.25 62 57.25 C61.4121875 55.6103125 61.4121875 55.6103125 60.8125 53.9375 C59.28658116 50.29877046 57.53057988 49.06300048 54 47.25 C54 46.59 54 45.93 54 45.25 C50.7 44.92 47.4 44.59 44 44.25 C44 43.59 44 42.93 44 42.25 C41.36 42.25 38.72 42.25 36 42.25 C36 42.91 36 43.57 36 44.25 C33.36 44.58 30.72 44.91 28 45.25 C28 45.91 28 46.57 28 47.25 C23.8300924 47.76917822 19.87174584 48.14931539 16 46.2890625 C12.65860175 43.25288812 12.0418681 40.81974566 11.7109375 36.31640625 C11.69849239 32.60568916 11.83878128 28.90056889 11.96289062 25.19238281 C12.09523007 18.26545755 10.48143703 14.46422198 5.875 9.3125 C4.78832031 8.21615234 4.78832031 8.21615234 3.6796875 7.09765625 C2 5.25 2 5.25 2 3.25 C-7.10527948 1.84918777 -16.78236724 0.38650306 -25 5.25 C-27.72926391 7.56256494 -27.72926391 7.56256494 -30 10.25 C-31.051875 11.3946875 -31.051875 11.3946875 -32.125 12.5625 C-35.91242638 17.99114448 -37.32182976 23.73956572 -38 30.25 C-38.66 30.25 -39.32 30.25 -40 30.25 C-39.95359375 30.84167969 -39.9071875 31.43335938 -39.859375 32.04296875 C-39.67368439 36.1082668 -39.6520961 38.60771587 -41.625 42.25 C-44.57502506 44.73423163 -46.17468007 44.88928881 -50 45.25 C-52.72660639 45.01302222 -55.3635859 44.71821911 -58.0625 44.3125 C-62.39107477 43.68953891 -66.61377826 43.10464762 -71 43.25 C-71 43.91 -71 44.57 -71 45.25 C-71.91523438 45.43175781 -72.83046875 45.61351562 -73.7734375 45.80078125 C-74.96195313 46.05214844 -76.15046875 46.30351562 -77.375 46.5625 C-78.55835937 46.80613281 -79.74171875 47.04976562 -80.9609375 47.30078125 C-84.27925004 47.98763609 -84.27925004 47.98763609 -86 51.25 C-87.65532623 52.26866229 -89.32260138 53.26810813 -91 54.25 C-94.72604448 57.42403789 -95.88675931 60.18292424 -96.40625 65.078125 C-96.9272447 74.62387734 -96.9272447 74.62387734 -93.3125 83.1875 C-90.86292096 85.78835946 -88.54028759 87.41699116 -85 88.25 C-85 89.24 -85 90.23 -85 91.25 C-91.60758915 89.83408804 -94.59246131 85.90225257 -98.1484375 80.5078125 C-100.50930333 74.24826914 -100.22511848 63.82903762 -97.5625 57.75 C-92.1172915 49.05305922 -83.08379459 43.28984691 -73.25 41 C-67.49324889 39.98988684 -59.36968043 38.56515979 -54 41.25 C-49.94944183 41.66591713 -49.94944183 41.66591713 -46 41.25 C-42.44307139 38.02014528 -42.46111365 34.14591322 -42.125 29.625 C-41.04392103 18.99898961 -37.11277725 10.46320852 -29 3.25 C-20.34398234 -2.24967973 -9.66855902 -4.15064403 0 0 Z " fill="#BEC3BD" transform="translate(201,96.75)"/>
<path d="M0 0 C0.33 0 0.66 0 1 0 C1.58908262 3.77012878 0.72898394 5.62636013 -1.375 8.625 C-4.61509527 13.41630236 -5.30323897 18.34271644 -6 24 C-6.66 24 -7.32 24 -8 24 C-7.95359375 24.59167969 -7.9071875 25.18335938 -7.859375 25.79296875 C-7.67368439 29.8582668 -7.6520961 32.35771587 -9.625 36 C-12.57502506 38.48423163 -14.17468007 38.63928881 -18 39 C-20.72660639 38.76302222 -23.3635859 38.46821911 -26.0625 38.0625 C-30.39107477 37.43953891 -34.61377826 36.85464762 -39 37 C-39 37.66 -39 38.32 -39 39 C-39.91523438 39.18175781 -40.83046875 39.36351562 -41.7734375 39.55078125 C-42.96195313 39.80214844 -44.15046875 40.05351562 -45.375 40.3125 C-46.55835937 40.55613281 -47.74171875 40.79976562 -48.9609375 41.05078125 C-52.27925004 41.73763609 -52.27925004 41.73763609 -54 45 C-55.65532623 46.01866229 -57.32260138 47.01810813 -59 48 C-62.72604448 51.17403789 -63.88675931 53.93292424 -64.40625 58.828125 C-64.9272447 68.37387734 -64.9272447 68.37387734 -61.3125 76.9375 C-58.86292096 79.53835946 -56.54028759 81.16699116 -53 82 C-53 82.99 -53 83.98 -53 85 C-59.60758915 83.58408804 -62.59246131 79.65225257 -66.1484375 74.2578125 C-68.50930333 67.99826914 -68.22511848 57.57903762 -65.5625 51.5 C-60.1172915 42.80305922 -51.08379459 37.03984691 -41.25 34.75 C-35.49324889 33.73988684 -27.36968043 32.31515979 -22 35 C-17.94944183 35.41591713 -17.94944183 35.41591713 -14 35 C-10.44367969 31.77069765 -10.45963274 27.89570888 -10.125 23.375 C-9.2199962 14.23280482 -6.3828084 6.83872329 0 0 Z " fill="#B2B7B1" transform="translate(169,103)"/>
<path d="M0 0 C10.54943086 -1.03014334 10.54943086 -1.03014334 14.875 2.25 C20.24723201 7.73873825 23.22664817 15.5693033 23.5 23.1875 C23.06217265 30.37708595 21.05449526 36.9144338 16.15625 42.3125 C12.72323186 44.99920985 8.76994903 46.75610243 4.76245117 48.42822266 C1.90602949 49.68586355 0.2608175 50.48955518 -1.18359375 53.31640625 C-0.92328565 57.12133525 0.98941626 59.40230355 3.25 62.3125 C10.61650857 72.49291016 12.7169648 81.40173222 11 94 C9.27476396 99.38723132 6.41160839 103.54790108 3 108 C2.34 107.67 1.68 107.34 1 107 C1.3125 105.125 1.3125 105.125 2 103 C3.485 102.01 3.485 102.01 5 101 C9.51021939 92.64774186 9.48642977 80.98423884 6.875 71.9375 C4.79485066 66.78149002 1.32487202 62.46834022 -3.375 59.5 C-5 58 -5 58 -5.6875 54.6875 C-4.86429718 50.2721394 -3.69684233 48.89785087 -0.22265625 46.22265625 C3.62158841 44.10798388 7.68240246 43.5038645 12 43 C12 42.01 12 41.02 12 40 C12.61875 39.938125 13.2375 39.87625 13.875 39.8125 C16.20658176 39.18508214 16.20658176 39.18508214 17.1875 36.8125 C18.03318548 33.8851272 18.57913025 31.01623321 19 28 C19.66 28 20.32 28 21 28 C20.67 23.38 20.34 18.76 20 14 C19.34 14 18.68 14 18 14 C17.608125 12.906875 17.21625 11.81375 16.8125 10.6875 C15.28658116 7.04877046 13.53057988 5.81300048 10 4 C10 3.34 10 2.68 10 2 C6.7 1.67 3.4 1.34 0 1 C0 0.67 0 0.34 0 0 Z " fill="#C3C8C3" transform="translate(245,140)"/>
<path d="M0 0 C0 0.33 0 0.66 0 1 C-0.91523438 1.18175781 -1.83046875 1.36351562 -2.7734375 1.55078125 C-3.96195313 1.80214844 -5.15046875 2.05351562 -6.375 2.3125 C-8.15003906 2.67794922 -8.15003906 2.67794922 -9.9609375 3.05078125 C-13.27925004 3.73763609 -13.27925004 3.73763609 -15 7 C-16.65532623 8.01866229 -18.32260138 9.01810813 -20 10 C-23.72604448 13.17403789 -24.88675931 15.93292424 -25.40625 20.828125 C-25.9272447 30.37387734 -25.9272447 30.37387734 -22.3125 38.9375 C-19.86292096 41.53835946 -17.54028759 43.16699116 -14 44 C-14 44.99 -14 45.98 -14 47 C-20.60758915 45.58408804 -23.59246131 41.65225257 -27.1484375 36.2578125 C-29.50930333 29.99826914 -29.22511848 19.57903762 -26.5625 13.5 C-20.91708951 4.48330197 -10.67059689 -4.44608204 0 0 Z " fill="#BCC3C0" transform="translate(130,141)"/>
<path d="M0 0 C3.91895725 0.22000536 7.83411269 0.48117478 11.75 0.75 C12.86117187 0.811875 13.97234375 0.87375 15.1171875 0.9375 C16.18710938 1.01484375 17.25703125 1.0921875 18.359375 1.171875 C19.34389648 1.2347168 20.32841797 1.29755859 21.34277344 1.36230469 C24.66931024 2.16062462 25.92346961 3.31406612 28 6 C28.8857105 10.91166733 28.8857105 10.91166733 28 14 C26.39335127 15.92285087 24.62928279 17.48901341 22.75390625 19.1484375 C17.21402156 24.99677902 16.75846592 35.02562628 16.8359375 42.6953125 C17.09236728 46.29754032 18.0156309 49.52575611 19 53 C19.34665557 54.66394675 19.68676972 56.32943851 20 58 C15.45279657 54.03871074 14.45659991 48.37014217 13.671875 42.578125 C13.18566785 31.95102582 16.74226732 22.89591879 23.57421875 14.9375 C25.27933889 12.92808827 25.27933889 12.92808827 25.5625 9.5625 C25.20811123 6.84874209 25.20811123 6.84874209 23 5 C20.81144736 4.47804105 20.81144736 4.47804105 18.28125 4.21875 C17.34925781 4.09886719 16.41726562 3.97898438 15.45703125 3.85546875 C14.48121094 3.73816406 13.50539062 3.62085938 12.5 3.5 C10.57196161 3.26822788 8.64480053 3.02899924 6.71875 2.78125 C5.86216797 2.67876953 5.00558594 2.57628906 4.12304688 2.47070312 C2 2 2 2 0 0 Z " fill="#C2CCC5" transform="translate(117,188)"/>
<path d="M0 0 C4.95502457 4.09140373 7.61766202 8.96590762 9.97265625 14.828125 C12.42564785 20.01391713 16.91060746 24.06789179 21 28 C15.3238981 26.6239753 12.27347805 22.54912208 9 18 C7.20669912 14.97288739 5.51339105 11.89025583 3.9284668 8.74902344 C2.33664827 5.73556776 1.32885899 4.16958256 -1.7421875 2.5859375 C-2.48726562 2.39257812 -3.23234375 2.19921875 -4 2 C-8.19016197 4.94443814 -9.83291913 7.41579046 -12 12 C-13.1419565 13.93149102 -14.31100208 15.84710584 -15.5 17.75 C-16.0878125 18.69359375 -16.675625 19.6371875 -17.28125 20.609375 C-19 23 -19 23 -22 25 C-20.91367588 22.74378837 -19.76654035 20.62646456 -18.4375 18.5 C-16.92389183 16.13119077 -16.92389183 16.13119077 -16.4375 13.75 C-16.293125 13.1725 -16.14875 12.595 -16 12 C-15.34 11.67 -14.68 11.34 -14 11 C-13.7525 9.906875 -13.505 8.81375 -13.25 7.6875 C-12 4 -12 4 -9.25 1.5625 C-3.97512169 -0.97349919 -3.97512169 -0.97349919 0 0 Z " fill="#C9D0C9" transform="translate(197,222)"/>
<path d="M0 0 C3.21705667 0.30401738 4.64617092 0.62956262 6.9140625 3.00390625 C8.67445332 5.63645417 10.37936492 8.2789337 12 11 C12.36738281 11.6084375 12.73476562 12.216875 13.11328125 12.84375 C16.68198143 20.28558924 16.4730277 31.40031581 13.98046875 39.18359375 C12.04328694 43.122335 9.66503841 46.52216395 7 50 C6.34 49.67 5.68 49.34 5 49 C5.3125 47.125 5.3125 47.125 6 45 C6.99 44.34 7.98 43.68 9 43 C13.51021939 34.64774186 13.48642977 22.98423884 10.875 13.9375 C8.59061872 8.24830281 4.26979787 4.24438241 0 0 Z " fill="#CFD7CE" transform="translate(241,198)"/>
<path d="M0 0 C0.66 0 1.32 0 2 0 C1.69881187 2.78599022 1.37787026 4.54717178 -0.4375 6.72265625 C-4.52360501 8.75947994 -8.33364264 7.74947036 -12.75 7.125 C-20.09295182 6.10850606 -20.09295182 6.10850606 -27.453125 6.5546875 C-31 7 -31 7 -34 5 C-27.23556513 3.1961507 -17.5730318 0.7134841 -11 4 C-6.96642456 4.33427279 -6.96642456 4.33427279 -3 4 C-1.08743288 2.11922127 -1.08743288 2.11922127 0 0 Z " fill="#9DA29C" transform="translate(158,134)"/>
<path d="M0 0 C3.97868466 1.32622822 4.77612104 3.17831488 6.859375 6.6796875 C9.55699727 12.16731637 10.3115947 17.92390328 10 24 C9.01 24 8.02 24 7 24 C6.76216797 22.48019531 6.76216797 22.48019531 6.51953125 20.9296875 C5.29408569 13.71716775 4.32442625 8.32442625 -1 3 C-0.67 2.01 -0.34 1.02 0 0 Z " fill="#B3B8B3" transform="translate(207,102)"/>
<path d="M0 0 C0.33 0 0.66 0 1 0 C1.00257812 0.99 1.00515625 1.98 1.0078125 3 C1.16307109 10.13196575 1.37784754 16.05751864 6.3671875 21.61328125 C8.43394048 23.36853797 10.35882662 24.37854744 13 25 C13 25.99 13 26.98 13 28 C7.08215617 26.73189061 4.41406916 23.7151965 1 19 C-0.65497356 15.69005287 -0.10084335 12.00877 -0.0625 8.375 C-0.05798828 7.57320312 -0.05347656 6.77140625 -0.04882812 5.9453125 C-0.03703168 3.96350994 -0.01909605 1.98174567 0 0 Z " fill="#C9CECC" transform="translate(103,160)"/>
<path d="M0 0 C-0.33 0.66 -0.66 1.32 -1 2 C-2.05058594 1.9278125 -3.10117188 1.855625 -4.18359375 1.78125 C-11.46837513 1.29473067 -18.69451255 0.86954487 -26 1 C-20.13902684 -4.86097316 -7.14117239 -2.59678996 0 0 Z " fill="#B8BEB7" transform="translate(254,139)"/>
<path d="M0 0 C9.37047497 -0.91501926 9.37047497 -0.91501926 13.25390625 1.265625 C15.66256658 3.3373746 17.57258084 5.14516168 19 8 C19.039992 9.99960012 19.04346799 12.00047242 19 14 C17 12 17 12 16.1875 9.5625 C14.70738545 6.36856859 13.01732187 5.66746735 10 4 C10 3.34 10 2.68 10 2 C6.7 1.67 3.4 1.34 0 1 C0 0.67 0 0.34 0 0 Z " fill="#D3D7D3" transform="translate(245,140)"/>
<path d="M0 0 C0.66 0.33 1.32 0.66 2 1 C0.89932004 1.81721717 -0.20569731 2.62859451 -1.3125 3.4375 C-1.92738281 3.88996094 -2.54226562 4.34242188 -3.17578125 4.80859375 C-7.65540541 7.73425835 -12.42318145 7.18370154 -17.5625 7.1875 C-18.43841797 7.19974609 -19.31433594 7.21199219 -20.21679688 7.22460938 C-21.47266602 7.22750977 -21.47266602 7.22750977 -22.75390625 7.23046875 C-23.90354858 7.23663208 -23.90354858 7.23663208 -25.07641602 7.24291992 C-27 7 -27 7 -29 5 C-27.73285156 5.04640625 -26.46570313 5.0928125 -25.16015625 5.140625 C-12.54624502 5.58474176 -12.54624502 5.58474176 -1 1 C-0.67 0.67 -0.34 0.34 0 0 Z " fill="#D0D5D1" transform="translate(173,247)"/>
<path d="M0 0 C-0.804375 0.556875 -1.60875 1.11375 -2.4375 1.6875 C-5.26921216 4.24294756 -5.70717885 5.2909321 -6 9 C-6 9.66 -6 10.32 -6 11 C-7.32 11 -8.64 11 -10 11 C-10.48275862 4.72413793 -10.48275862 4.72413793 -8.375 1.5625 C-5.397402 -0.39644605 -3.49644963 -0.31785906 0 0 Z " fill="#B7BCB6" transform="translate(250,187)"/>
<path d="M0 0 C0 0.33 0 0.66 0 1 C-1.37285156 1.29003906 -1.37285156 1.29003906 -2.7734375 1.5859375 C-3.96195313 1.84632813 -5.15046875 2.10671875 -6.375 2.375 C-7.55835937 2.63023437 -8.74171875 2.88546875 -9.9609375 3.1484375 C-13.08196967 3.75523965 -13.08196967 3.75523965 -15 6 C-15.99 5.67 -16.98 5.34 -18 5 C-11.75987579 -0.32245889 -8.08696966 -3.07304847 0 0 Z " fill="#B7BDB8" transform="translate(130,141)"/>
<path d="M0 0 C0.99 0.33 1.98 0.66 3 1 C2.97679687 1.56847656 2.95359375 2.13695312 2.9296875 2.72265625 C2.80808312 7.92558648 3.32276508 12.07312243 5 17 C-0.79118329 11.65429234 -0.79118329 11.65429234 -1 8 C-0.7665407 5.30743606 -0.40144934 2.67632894 0 0 Z " fill="#C9D0C9" transform="translate(214,126)"/>
<path d="M0 0 C0.66 0 1.32 0 2 0 C1.66896829 3.06204329 1.39949096 4.60050904 -0.8125 6.8125 C-3 8 -3 8 -7 8 C-7 7.34 -7 6.68 -7 6 C-8.65 6 -10.3 6 -12 6 C-11.67 5.34 -11.34 4.68 -11 4 C-9.741875 4.0825 -8.48375 4.165 -7.1875 4.25 C-5.00676926 4.31722799 -5.00676926 4.31722799 -3 4 C-1.08743288 2.11922127 -1.08743288 2.11922127 0 0 Z " fill="#8B938E" transform="translate(158,134)"/>
<path d="M0 0 C-0.70125 0.556875 -1.4025 1.11375 -2.125 1.6875 C-5.11344261 4.09124732 -8.05940238 6.53810432 -11 9 C-11.4375 6.8125 -11.4375 6.8125 -11 4 C-7.63057727 0.48206277 -4.83181826 -1.73175787 0 0 Z " fill="#C6CAC6" transform="translate(181,98)"/>
<path d="M0 0 C2.475 0.99 2.475 0.99 5 2 C5.7230444 8.98942918 5.7230444 8.98942918 3.6640625 11.8671875 C2.18138972 13.32201666 0.59576526 14.67019562 -1 16 C-1.66 15.67 -2.32 15.34 -3 15 C-2.175 14.13375 -1.35 13.2675 -0.5 12.375 C1.54212862 9.9279167 1.98543515 9.10611533 2.4375 5.8125 C2.17077637 2.80093007 2.17077637 2.80093007 0 0 Z " fill="#AFBCB0" transform="translate(140,192)"/>
<path d="M0 0 C0.33 0 0.66 0 1 0 C0.65021857 6.64584719 -0.80477672 9.83664827 -5 15 C-5.66 14.67 -6.32 14.34 -7 14 C-6.6875 12.125 -6.6875 12.125 -6 10 C-5.01 9.34 -4.02 8.68 -3 8 C-1.99831469 6.05167065 -1.99831469 6.05167065 -1.3125 3.875 C-1.06113281 3.15054688 -0.80976563 2.42609375 -0.55078125 1.6796875 C-0.36902344 1.12539062 -0.18726563 0.57109375 0 0 Z " fill="#D6D9D4" transform="translate(253,233)"/>
<path d="M0 0 C1.76923828 0.01353516 1.76923828 0.01353516 3.57421875 0.02734375 C4.47785156 0.03894531 5.38148438 0.05054687 6.3125 0.0625 C3.25003253 1.84659802 1.09170727 2.29130021 -2.4375 2.1875 C-3.23671875 2.16945313 -4.0359375 2.15140625 -4.859375 2.1328125 C-5.46265625 2.10960938 -6.0659375 2.08640625 -6.6875 2.0625 C-6.6875 2.7225 -6.6875 3.3825 -6.6875 4.0625 C-7.6775 3.7325 -8.6675 3.4025 -9.6875 3.0625 C-9.6875 2.4025 -9.6875 1.7425 -9.6875 1.0625 C-6.26517028 -0.07827657 -3.60076783 -0.03565117 0 0 Z " fill="#A8B1A9" transform="translate(189.6875,94.9375)"/>
<path d="M0 0 C-1.16293865 2.74876408 -2.64729453 4.86660742 -4.5625 7.125 C-6.96006418 9.72238036 -6.96006418 9.72238036 -8 12 C-8.66 12 -9.32 12 -10 12 C-8.88685188 7.3247779 -5.68510408 0 0 0 Z " fill="#EDEEEE" transform="translate(114,148)"/>
<path d="M0 0 C0.33 0 0.66 0 1 0 C1.46299639 8.02527076 1.46299639 8.02527076 -0.1875 11.5 C-2.41713852 13.34521809 -4.15190074 13.69209738 -7 14 C-7 13.34 -7 12.68 -7 12 C-6.38125 11.938125 -5.7625 11.87625 -5.125 11.8125 C-2.79341824 11.18508214 -2.79341824 11.18508214 -1.8125 8.8125 C-0.96681452 5.8851272 -0.42086975 3.01623321 0 0 Z " fill="#D4D8D4" transform="translate(264,168)"/>
<path d="M0 0 C0 0.33 0 0.66 0 1 C-2.64 1 -5.28 1 -8 1 C-8 1.66 -8 2.32 -8 3 C-10.97 3 -13.94 3 -17 3 C-12.64547174 -1.35452826 -5.77102003 -0.10085278 0 0 Z " fill="#A9B1A5" transform="translate(245,137)"/>
<path d="M0 0 C2.25 0.125 2.25 0.125 5 1 C7.3125 4.0625 7.3125 4.0625 9 7 C6.62051228 6.82374165 5.29774151 6.30280227 3.62109375 4.59765625 C2.37884514 3.09350908 1.18623944 1.54870149 0 0 Z " fill="#C7CDC6" transform="translate(241,198)"/>
</svg>
